<?xml version="1.0" encoding="UTF-8" standalone="no"?>
<!-- Created with Inkscape (http://www.inkscape.org/) -->

<svg
   width="210mm"
   height="297mm"
   viewBox="0 0 210 297"
   version="1.1"
   id="svg5"
   inkscape:version="1.1.2 (0a00cf5339, 2022-02-04)"
   sodipodi:docname="k8s.svg"
   xmlns:inkscape="http://www.inkscape.org/namespaces/inkscape"
   xmlns:sodipodi="http://sodipodi.sourceforge.net/DTD/sodipodi-0.dtd"
   xmlns:xlink="http://www.w3.org/1999/xlink"
   xmlns="http://www.w3.org/2000/svg"
   xmlns:svg="http://www.w3.org/2000/svg">
  <sodipodi:namedview
     id="namedview7"
     pagecolor="#ffffff"
     bordercolor="#666666"
     borderopacity="1.0"
     inkscape:pageshadow="2"
     inkscape:pageopacity="0.0"
     inkscape:pagecheckerboard="0"
     inkscape:document-units="mm"
     showgrid="false"
     inkscape:zoom="0.25"
     inkscape:cx="-3587.4401"
     inkscape:cy="20808.375"
     inkscape:window-width="3354"
     inkscape:window-height="1782"
     inkscape:window-x="1618"
     inkscape:window-y="102"
     inkscape:window-maximized="0"
     inkscape:current-layer="layer1"
     showguides="true"
     inkscape:guide-bbox="true">
    <sodipodi:guide
       position="-1872.6168,-940.58748"
       orientation="1,0"
       id="guide144264" />
  </sodipodi:namedview>
  <defs
     id="defs2">
    <marker
       style="overflow:visible"
       id="Arrow1Lstart"
       refX="0.0"
       refY="0.0"
       orient="auto"
       inkscape:stockid="Arrow1Lstart"
       inkscape:isstock="true">
      <path
         transform="scale(0.8) translate(12.5,0)"
         style="fill-rule:evenodd;fill:context-stroke;stroke:context-stroke;stroke-width:1.0pt"
         d="M 0.0,0.0 L 5.0,-5.0 L -12.5,0.0 L 5.0,5.0 L 0.0,0.0 z "
         id="path5193" />
    </marker>
    <clipPath
       id="clip0_15_21">
      <rect
         width="500"
         height="171.38"
         fill="white"
         id="rect239717" />
    </clipPath>
    <style
       id="style271683">.cls-1{fill:#0f1689;}</style>
    <linearGradient
       id="linear-gradient"
       x1="264.788"
       x2="267.269"
       y1="951.959"
       y2="951.959"
       gradientTransform="matrix(30.42866 0 0 -30.42866 -7955.215 29272.28)"
       gradientUnits="userSpaceOnUse">
      <stop
         offset="0"
         stop-color="#60b932"
         id="stop272318" />
      <stop
         offset=".282"
         stop-color="#60b932"
         id="stop272320" />
      <stop
         offset="1"
         stop-color="#367c34"
         id="stop272322" />
    </linearGradient>
    <linearGradient
       id="linear-gradient-2"
       x1="263.774"
       x2="266.255"
       y1="955.219"
       y2="955.219"
       gradientTransform="matrix(27.2148,0,0,-27.2148,-7073.85,26157.32)"
       xlink:href="#linear-gradient" />
    <linearGradient
       id="linear-gradient-3"
       x1="263.278"
       x2="265.759"
       y1="953.312"
       y2="953.312"
       gradientTransform="matrix(25.74947,0,0,-25.74947,-6671.128,24800.762)"
       xlink:href="#linear-gradient" />
    <linearGradient
       id="linear-gradient-4"
       x1="263.769"
       x2="266.25"
       y1="952.771"
       y2="952.771"
       gradientTransform="matrix(27.09707,0,0,-27.09707,-7040.897,26090.446)"
       xlink:href="#linear-gradient" />
    <linearGradient
       id="linear-gradient-5"
       x1="262.733"
       x2="265.214"
       y1="953.913"
       y2="953.913"
       gradientTransform="matrix(24.40187,0,0,-24.40187,-6301.36,23511.076)"
       xlink:href="#linear-gradient" />
    <linearGradient
       id="linear-gradient-6"
       x1="272.14"
       x2="274.621"
       y1="954.718"
       y2="954.718"
       gradientTransform="matrix(53.111163,-39.333197,-39.333197,-53.111163,23273.038,61554.284)"
       gradientUnits="userSpaceOnUse">
      <stop
         offset="0"
         stop-color="#4596d8"
         id="stop272329" />
      <stop
         offset=".2"
         stop-color="#4596d8"
         id="stop272331" />
      <stop
         offset="1"
         stop-color="#fff"
         id="stop272333" />
    </linearGradient>
    <linearGradient
       id="linear-gradient-7"
       x1="270.651"
       x2="273.133"
       y1="951.955"
       y2="951.955"
       gradientTransform="matrix(76.222166,15.55607,15.55607,-76.222166,-35265.607,68510.949)"
       gradientUnits="userSpaceOnUse">
      <stop
         offset="0"
         stop-color="#4194d7"
         id="stop272336" />
      <stop
         offset=".2"
         stop-color="#4194d7"
         id="stop272338" />
      <stop
         offset="1"
         stop-color="#fff"
         id="stop272340" />
    </linearGradient>
    <linearGradient
       id="linear-gradient-8"
       x1="270.972"
       x2="273.453"
       y1="953.318"
       y2="953.318"
       gradientTransform="matrix(70.222269,-12.666615,-12.666615,-70.222269,-6776.414,70529.223)"
       gradientUnits="userSpaceOnUse">
      <stop
         offset="0"
         stop-color="#4194d7"
         id="stop272343" />
      <stop
         offset=".333"
         stop-color="#4496d8"
         id="stop272345" />
      <stop
         offset="1"
         stop-color="#fff"
         id="stop272347" />
    </linearGradient>
    <clipPath
       id="clip-path">
      <path
         d="M174.401 302.089l-68.654-30.253-3.822 43.201 75.497 23.987-3.021-36.935z"
         class="cls-1"
         id="path272350" />
    </clipPath>
    <clipPath
       id="clip-path-2">
      <path
         d="M119.188 134.954h38.554v32.892h-9.15v-14.05a10.128 10.128 0 1 0-20.255 0v14.05h-9.15zm-7.703 72.04l57.2 25.207-3.944-48.237h7.486v-16.118h-5.554v-32.892h5.554v-9.455l-30.85-30.187v-2.124a2.912 2.912 0 0 0-5.823 0v2.124L104.703 125.5v9.455h5.555v32.892h-5.555v16.118h8.82z"
         class="cls-1"
         id="path272353" />
    </clipPath>
    <clipPath
       id="clip-path-3">
      <path
         d="M108.135 244.851l63.888 28.156-.959-11.725-61.968-27.305-.961 10.874z"
         class="cls-1"
         id="path272356" />
    </clipPath>
    <clipPath
       id="clip-path-4">
      <path
         d="M106.46 263.78l67.23 29.629-.956-11.721-65.311-28.781-.963 10.873z"
         class="cls-1"
         id="path272359" />
    </clipPath>
    <clipPath
       id="clip-path-5">
      <path
         d="M110.773 215.048l-.963 10.877 60.544 26.677-.958-11.721-58.623-25.833z"
         class="cls-1"
         id="path272362" />
    </clipPath>
    <clipPath
       id="clip-path-6">
      <path
         d="M313.126 67.16a175.312 175.312 0 0 0-29.75-28.133 179.67 179.67 0 0 0-4.788-3.42L256.03 59.068 173.69 144.7l113.38-58.677 29.07-15.042c-1.006-1.274-1.976-2.577-3.014-3.821z"
         class="cls-1"
         id="path272365" />
    </clipPath>
    <clipPath
       id="clip-path-7">
      <path
         d="M353.588 177.179c-.017-1.99-.136-3.952-.219-5.925l-32.214-2.312-147.465-10.584 144.67 50.191 30.41 10.551c.09-.36.192-.714.278-1.078a173.652 173.652 0 0 0 4.572-39.47c0-.46-.03-.913-.033-1.373z"
         class="cls-1"
         id="path272368" />
    </clipPath>
    <clipPath
       id="clip-path-8">
      <path
         d="M348.84 138.18a172.551 172.551 0 0 0-13.83-37.7l-30.939 9.94-128.148 41.182 141.98-4.834 32.502-1.107c-.483-2.506-.976-5.01-1.564-7.482z"
         class="cls-1"
         id="path272371" />
    </clipPath>
    <style
       id="style272374">.cls-1{fill:none}.cls-3{fill:#696566}</style>
    <linearGradient
       inkscape:collect="always"
       xlink:href="#linear-gradient"
       id="linearGradient272489"
       gradientUnits="userSpaceOnUse"
       gradientTransform="matrix(30.42866,0,0,-30.42866,-7955.215,29272.28)"
       x1="264.788"
       y1="951.959"
       x2="267.269"
       y2="951.959" />
  </defs>
  <g
     inkscape:label="Layer 1"
     inkscape:groupmode="layer"
     id="layer1">
    <text
       xml:space="preserve"
       style="font-style:normal;font-weight:normal;font-size:50.8px;line-height:1.25;font-family:sans-serif;fill:#000000;fill-opacity:1;stroke:none;stroke-width:0.264583"
       x="-1801.9323"
       y="-1693.5957"
       id="text1629"><tspan
         sodipodi:role="line"
         id="tspan1627"
         style="font-size:50.8px;stroke-width:0.264583"
         x="-1801.9323"
         y="-1693.5957">How we Migrated RCSB.org </tspan><tspan
         sodipodi:role="line"
         style="font-size:50.8px;stroke-width:0.264583"
         x="-1801.9323"
         y="-1630.0957"
         id="tspan132859">at the San Diego Supercomputer Center </tspan><tspan
         sodipodi:role="line"
         style="font-size:50.8px;stroke-width:0.264583"
         x="-1801.9323"
         y="-1566.5957"
         id="tspan132861">to Kubernetes:</tspan><tspan
         sodipodi:role="line"
         style="font-size:50.8px;stroke-width:0.264583"
         x="-1801.9323"
         y="-1503.0957"
         id="tspan134183" /><tspan
         sodipodi:role="line"
         style="font-size:50.8px;stroke-width:0.264583"
         x="-1801.9323"
         y="-1439.5957"
         id="tspan3914">lessons learned </tspan></text>
    <text
       xml:space="preserve"
       style="font-style:normal;font-weight:normal;font-size:10.5833px;line-height:1.25;font-family:sans-serif;fill:#000000;fill-opacity:1;stroke:none;stroke-width:0.264583"
       x="-239.7066"
       y="-81.6931"
       id="text3192"
       transform="rotate(-90.094355)"
       inkscape:transform-center-x="-6.6074835"
       inkscape:transform-center-y="-30.205633"><tspan
         sodipodi:role="line"
         id="tspan3190"
         style="stroke-width:0.264583"
         x="-239.7066"
         y="-81.6931">Rotated</tspan></text>
    <image
       width="1025.7896"
       height="445.02917"
       preserveAspectRatio="none"
       xlink:href="Screenshot_20230109_144506.png"
       id="image5060"
       x="-1873.9551"
       y="-730.98431" />
    <image
       width="12.29144"
       height="5.0285873"
       preserveAspectRatio="none"
       xlink:href="Screenshot_20230109_144621.png"
       id="image5102"
       x="-1433.6233"
       y="-411.48575" />
    <text
       xml:space="preserve"
       style="font-style:normal;font-weight:normal;font-size:25.4px;line-height:1.25;font-family:sans-serif;fill:#000000;fill-opacity:1;stroke:none;stroke-width:0.264583"
       x="-1530.4403"
       y="471.95575"
       id="text10452"><tspan
         sodipodi:role="line"
         id="tspan10450"
         style="font-size:25.4px;stroke-width:0.264583"
         x="-1530.4403"
         y="471.95575">A little bit about me</tspan></text>
    <text
       xml:space="preserve"
       style="font-style:normal;font-weight:normal;font-size:16.9333px;line-height:1.25;font-family:sans-serif;fill:#000000;fill-opacity:1;stroke:none;stroke-width:0.264583"
       x="-1121.6123"
       y="-1339.3524"
       id="text10452-8"><tspan
         sodipodi:role="line"
         id="tspan10450-8"
         style="font-size:16.9333px;stroke-width:0.264583"
         x="-1121.6123"
         y="-1339.3524">by Igor Khokhriakov</tspan><tspan
         sodipodi:role="line"
         style="font-size:16.9333px;stroke-width:0.264583"
         x="-1121.6123"
         y="-1318.1858"
         id="tspan135040">aka Ingvord</tspan><tspan
         sodipodi:role="line"
         style="font-size:16.9333px;stroke-width:0.264583"
         x="-1121.6123"
         y="-1297.0192"
         id="tspan136884">for Kubernetes Community Day</tspan><tspan
         sodipodi:role="line"
         style="font-size:16.9333px;stroke-width:0.264583"
         x="-1121.6123"
         y="-1275.8525"
         id="tspan136882"></tspan><tspan
         sodipodi:role="line"
         style="font-size:16.9333px;stroke-width:0.264583"
         x="-1121.6123"
         y="-1254.6859"
         id="tspan162368">SCaLE 20x</tspan><tspan
         sodipodi:role="line"
         style="font-size:16.9333px;stroke-width:0.264583"
         x="-1121.6123"
         y="-1233.5193"
         id="tspan136880">March, 9-12'23</tspan><tspan
         sodipodi:role="line"
         style="font-size:16.9333px;stroke-width:0.264583"
         x="-1121.6123"
         y="-1212.3527"
         id="tspan136890">Pasadena, CA</tspan></text>
    <text
       xml:space="preserve"
       style="font-style:normal;font-weight:normal;font-size:16.9333px;line-height:1.25;font-family:sans-serif;fill:#000000;fill-opacity:1;stroke:none;stroke-width:0.264583"
       x="-1425.7461"
       y="-1135.4313"
       id="text10452-0"><tspan
         sodipodi:role="line"
         id="tspan10450-7"
         style="font-size:16.9333px;stroke-width:0.264583"
         x="-1425.7461"
         y="-1135.4313">Feb, 1st'23</tspan></text>
    <image
       width="629.70831"
       height="292.10001"
       preserveAspectRatio="none"
       xlink:href="Screenshot_20230109_154737.png"
       id="image22178"
       x="-1664.0393"
       y="-185.95036" />
    <text
       xml:space="preserve"
       style="font-style:normal;font-weight:normal;font-size:25.4px;line-height:1.25;font-family:sans-serif;fill:#000000;fill-opacity:1;stroke:none;stroke-width:0.264583"
       x="-1481.2144"
       y="145.14435"
       id="text22932"><tspan
         sodipodi:role="line"
         id="tspan22930"
         style="font-weight:bold;font-size:25.4px;stroke-width:0.264583"
         x="-1481.2144"
         y="145.14435">~3M requests daily</tspan></text>
    <text
       xml:space="preserve"
       style="font-style:normal;font-weight:normal;font-size:8.46667px;line-height:1.25;font-family:sans-serif;fill:#000000;fill-opacity:1;stroke:none;stroke-width:0.264583"
       x="-1445.9666"
       y="324.42789"
       id="text22932-8"><tspan
         sodipodi:role="line"
         id="tspan22930-6"
         style="font-weight:bold;font-size:8.46667px;stroke-width:0.264583"
         x="-1445.9666"
         y="324.42789">~20 services; ~80 instances per coast;</tspan><tspan
         sodipodi:role="line"
         style="font-weight:bold;font-size:8.46667px;stroke-width:0.264583"
         x="-1445.9666"
         y="335.01123"
         id="tspan98523">~160 running service instances in total</tspan></text>
    <image
       width="218.97888"
       height="112.72627"
       preserveAspectRatio="none"
       xlink:href="architecture.png"
       id="image27126"
       x="-1476.9708"
       y="191.54361" />
    <text
       xml:space="preserve"
       style="font-style:normal;font-weight:normal;font-size:9.22919px;line-height:1.25;font-family:sans-serif;fill:#000000;fill-opacity:1;stroke:none;stroke-width:0.23073"
       x="-1551.699"
       y="569.8609"
       id="text29902"><tspan
         sodipodi:role="line"
         style="stroke-width:0.23073"
         x="-1551.699"
         y="569.8609"
         id="tspan249315">Well-seasoned CEO-Minded Software Developer/Architect </tspan><tspan
         sodipodi:role="line"
         style="stroke-width:0.23073"
         x="-1551.699"
         y="581.3974"
         id="tspan249319">                                  with 15+ yrs of experience;</tspan><tspan
         sodipodi:role="line"
         style="stroke-width:0.23073"
         x="-1551.699"
         y="592.9339"
         id="tspan184674" /><tspan
         sodipodi:role="line"
         style="stroke-width:0.23073"
         x="-1551.699"
         y="604.47034"
         id="tspan184672">Invited to SDSC RCSB PDB group to design and implement K8s platform</tspan><tspan
         sodipodi:role="line"
         style="stroke-width:0.23073"
         x="-1551.699"
         y="616.00684"
         id="tspan126965">                                  and distributed reactive backend for their search API;</tspan><tspan
         sodipodi:role="line"
         style="stroke-width:0.23073"
         x="-1551.699"
         y="627.54333"
         id="tspan29904" /><tspan
         sodipodi:role="line"
         style="stroke-width:0.23073"
         x="-1551.699"
         y="639.07983"
         id="tspan29906">Previously worked as Scientific Software Developer/Architect </tspan><tspan
         sodipodi:role="line"
         style="stroke-width:0.23073"
         x="-1551.699"
         y="650.61633"
         id="tspan122599">                                                                             at DESY, Hamburg, Germany</tspan><tspan
         sodipodi:role="line"
         style="stroke-width:0.23073"
         x="-1551.699"
         y="662.15277"
         id="tspan182500">                                                                             and ESRF, Grenoble, France;</tspan><tspan
         sodipodi:role="line"
         style="stroke-width:0.23073"
         x="-1551.699"
         y="673.68927"
         id="tspan31654" /><tspan
         sodipodi:role="line"
         style="stroke-width:0.23073"
         x="-1551.699"
         y="685.22577"
         id="tspan31722">with main focus in designing SCADA and DCS systems </tspan><tspan
         sodipodi:role="line"
         style="stroke-width:0.23073"
         x="-1551.699"
         y="696.76227"
         id="tspan121187">                                     as well as high level Meta Data acquisition systems;</tspan><tspan
         sodipodi:role="line"
         style="stroke-width:0.23073"
         x="-1551.699"
         y="708.29877"
         id="tspan34718" /><tspan
         sodipodi:role="line"
         style="stroke-width:0.23073"
         x="-1551.699"
         y="719.83527"
         id="tspan34720">and even before that was a Full Stack Developer </tspan><tspan
         sodipodi:role="line"
         style="stroke-width:0.23073"
         x="-1551.699"
         y="731.3717"
         id="tspan126345">                                                       for a web based trading/analytics system;</tspan></text>
    <text
       xml:space="preserve"
       style="font-style:normal;font-weight:normal;font-size:11.2889px;line-height:1.25;font-family:sans-serif;fill:#000000;fill-opacity:1;stroke:none;stroke-width:0.264583"
       x="-1573.1122"
       y="-167.43929"
       id="text2086"><tspan
         sodipodi:role="line"
         id="tspan2084"
         style="font-size:11.2889px;stroke-width:0.264583"
         x="-1573.1122"
         y="-167.43929">Research Collaboratory for Structural Bioinformatics PDB aka rcsb.org</tspan></text>
    <text
       xml:space="preserve"
       style="font-style:normal;font-weight:normal;font-size:50.8px;line-height:1.25;font-family:sans-serif;fill:#000000;fill-opacity:1;stroke:none;stroke-width:0.264583"
       x="-1874.3159"
       y="1051.7065"
       id="text1629-3"><tspan
         sodipodi:role="line"
         style="font-size:50.8px;stroke-width:0.264583"
         x="-1874.3159"
         y="1051.7065"
         id="tspan3914-7">Lesson 1: </tspan><tspan
         sodipodi:role="line"
         style="font-size:50.8px;stroke-width:0.264583"
         x="-1874.3159"
         y="1115.2065"
         id="tspan8170">careful design requires a lot of learning/researching</tspan></text>
    <text
       xml:space="preserve"
       style="font-style:normal;font-weight:normal;font-size:50.8px;line-height:1.25;font-family:sans-serif;fill:#000000;fill-opacity:1;stroke:none;stroke-width:0.264583"
       x="-1871.8475"
       y="2337.0308"
       id="text1629-3-5"><tspan
         sodipodi:role="line"
         style="font-size:50.8px;stroke-width:0.264583"
         x="-1871.8475"
         y="2337.0308"
         id="tspan3914-7-3">Lesson 2: </tspan><tspan
         sodipodi:role="line"
         style="font-size:50.8px;stroke-width:0.264583"
         x="-1871.8475"
         y="2400.5308"
         id="tspan8170-5">choose your provider carefully</tspan></text>
    <text
       xml:space="preserve"
       style="font-style:normal;font-weight:normal;font-size:50.8px;line-height:1.25;font-family:sans-serif;fill:#000000;fill-opacity:1;stroke:none;stroke-width:0.264583"
       x="-1872.4297"
       y="2807.3831"
       id="text1629-3-5-6"><tspan
         sodipodi:role="line"
         style="font-size:50.8px;stroke-width:0.264583"
         x="-1872.4297"
         y="2807.3831"
         id="tspan3914-7-3-2">Lesson 3: </tspan><tspan
         sodipodi:role="line"
         style="font-size:50.8px;stroke-width:0.264583"
         x="-1872.4297"
         y="2870.8831"
         id="tspan8170-5-9">monitoring/controlling k8s resources</tspan></text>
    <text
       xml:space="preserve"
       style="font-style:normal;font-weight:normal;font-size:50.8px;line-height:1.25;font-family:sans-serif;fill:#000000;fill-opacity:1;stroke:none;stroke-width:0.264583"
       x="-1871.6501"
       y="3979.0586"
       id="text1629-3-5-6-1"><tspan
         sodipodi:role="line"
         style="font-size:50.8px;stroke-width:0.264583"
         x="-1871.6501"
         y="3979.0586"
         id="tspan3914-7-3-2-2">Lesson 4: </tspan><tspan
         sodipodi:role="line"
         style="font-size:50.8px;stroke-width:0.264583"
         x="-1871.6501"
         y="4042.5586"
         id="tspan254570">troubleshooting issues -&gt; learn kubectl</tspan></text>
    <text
       xml:space="preserve"
       style="font-style:normal;font-weight:normal;font-size:50.8px;line-height:1.25;font-family:sans-serif;fill:#000000;fill-opacity:1;stroke:none;stroke-width:0.264583"
       x="-1872.5824"
       y="4730.8027"
       id="text1629-3-5-6-1-0"><tspan
         sodipodi:role="line"
         style="font-size:50.8px;stroke-width:0.264583"
         x="-1872.5824"
         y="4730.8027"
         id="tspan3914-7-3-2-2-9">Lesson 5: </tspan><tspan
         sodipodi:role="line"
         style="font-size:50.8px;stroke-width:0.264583"
         x="-1872.5824"
         y="4794.3027"
         id="tspan8170-5-9-7-3">choosing the <tspan
   style="font-style:italic"
   id="tspan271566">right</tspan> tools</tspan></text>
    <text
       xml:space="preserve"
       style="font-style:normal;font-weight:normal;font-size:50.8px;line-height:1.25;font-family:sans-serif;fill:#000000;fill-opacity:1;stroke:none;stroke-width:0.264583"
       x="-1839.7577"
       y="5630.3184"
       id="text1629-3-5-6-1-0-6"><tspan
         sodipodi:role="line"
         style="font-size:50.8px;stroke-width:0.264583"
         x="-1839.7577"
         y="5630.3184"
         id="tspan3914-7-3-2-2-9-0">Lesson 6: </tspan><tspan
         sodipodi:role="line"
         style="font-size:50.8px;stroke-width:0.264583"
         x="-1839.7577"
         y="5693.8184"
         id="tspan8170-5-9-7-3-6">try with some non-critical/non-continous tasks</tspan></text>
    <text
       xml:space="preserve"
       style="font-style:normal;font-weight:normal;font-size:50.8px;line-height:1.25;font-family:sans-serif;fill:#000000;fill-opacity:1;stroke:none;stroke-width:0.264583"
       x="-1842.7509"
       y="6078.5615"
       id="text1629-3-5-6-1-0-6-7"><tspan
         sodipodi:role="line"
         style="font-size:50.8px;stroke-width:0.264583"
         x="-1842.7509"
         y="6078.5615"
         id="tspan3914-7-3-2-2-9-0-9">Lesson 7: </tspan><tspan
         sodipodi:role="line"
         style="font-size:50.8px;stroke-width:0.264583"
         x="-1842.7509"
         y="6142.0615"
         id="tspan8170-5-9-7-3-6-2">be prepared to invest time/resources into internal learning</tspan></text>
    <text
       xml:space="preserve"
       style="font-style:normal;font-weight:normal;font-size:50.8px;line-height:1.25;font-family:sans-serif;fill:#000000;fill-opacity:1;stroke:none;stroke-width:0.264583"
       x="-1864.1498"
       y="6412.6567"
       id="text1629-3-5-6-1-0-6-7-5"><tspan
         sodipodi:role="line"
         style="font-size:50.8px;stroke-width:0.264583"
         x="-1864.1498"
         y="6412.6567"
         id="tspan3914-7-3-2-2-9-0-9-4">Lesson 8: </tspan><tspan
         sodipodi:role="line"
         style="font-size:50.8px;stroke-width:0.264583"
         x="-1864.1498"
         y="6476.1567"
         id="tspan8170-5-9-7-3-6-2-7">self hosted github/gitlab runners are great</tspan></text>
    <text
       xml:space="preserve"
       style="font-style:normal;font-weight:normal;font-size:50.8px;line-height:1.25;font-family:sans-serif;fill:#000000;fill-opacity:1;stroke:none;stroke-width:0.264583"
       x="-1871.574"
       y="6818.3838"
       id="text1629-3-5-6-1-0-6-7-2"><tspan
         sodipodi:role="line"
         style="font-size:50.8px;stroke-width:0.264583"
         x="-1871.574"
         y="6818.3838"
         id="tspan3914-7-3-2-2-9-0-9-2">Challenge 1: </tspan><tspan
         sodipodi:role="line"
         style="font-size:50.8px;stroke-width:0.264583"
         x="-1871.574"
         y="6881.8838"
         id="tspan8170-5-9-7-3-6-2-8">Multicluster VS Cluster federation VS Single cluster</tspan></text>
    <text
       xml:space="preserve"
       style="font-style:normal;font-weight:normal;font-size:50.8px;line-height:1.25;font-family:sans-serif;fill:#000000;fill-opacity:1;stroke:none;stroke-width:0.264583"
       x="-1874.1221"
       y="7233.0879"
       id="text1629-3-5-6-1-0-6-7-2-6"><tspan
         sodipodi:role="line"
         style="font-size:50.8px;stroke-width:0.264583"
         x="-1874.1221"
         y="7233.0879"
         id="tspan3914-7-3-2-2-9-0-9-2-1">Challenge 3: </tspan><tspan
         sodipodi:role="line"
         style="font-size:50.8px;stroke-width:0.264583"
         x="-1874.1221"
         y="7296.5879"
         id="tspan8170-5-9-7-3-6-2-8-2">Costal distributed docker registry</tspan></text>
    <text
       xml:space="preserve"
       style="font-style:normal;font-weight:normal;font-size:50.8px;line-height:1.25;font-family:sans-serif;fill:#000000;fill-opacity:1;stroke:none;stroke-width:0.264583"
       x="-1881.6788"
       y="7473.8242"
       id="text1629-3-5-6-1-0-6-7-2-6-0"><tspan
         sodipodi:role="line"
         style="font-size:50.8px;stroke-width:0.264583"
         x="-1881.6788"
         y="7473.8242"
         id="tspan3914-7-3-2-2-9-0-9-2-1-3">Challenge 4*: </tspan><tspan
         sodipodi:role="line"
         style="font-size:50.8px;stroke-width:0.264583"
         x="-1881.6788"
         y="7537.3242"
         id="tspan8170-5-9-7-3-6-2-8-2-6">Preserving log infrastructure</tspan></text>
    <text
       xml:space="preserve"
       style="font-style:normal;font-weight:normal;font-size:50.8px;line-height:1.25;font-family:sans-serif;fill:#000000;fill-opacity:1;stroke:none;stroke-width:0.264583"
       x="-1894.0626"
       y="7843.4561"
       id="text1629-3-5-6-1-0-6-7-2-6-0-6"><tspan
         sodipodi:role="line"
         style="font-size:50.8px;stroke-width:0.264583"
         x="-1894.0626"
         y="7843.4561"
         id="tspan3914-7-3-2-2-9-0-9-2-1-3-3">Challenge 5*: </tspan><tspan
         sodipodi:role="line"
         style="font-size:50.8px;stroke-width:0.264583"
         x="-1894.0626"
         y="7906.9561"
         id="tspan8170-5-9-7-3-6-2-8-2-6-2">Ingress routing</tspan></text>
    <text
       xml:space="preserve"
       style="font-style:normal;font-weight:normal;font-size:50.8px;line-height:1.25;font-family:sans-serif;fill:#000000;fill-opacity:1;stroke:none;stroke-width:0.264583"
       x="-1884.2081"
       y="8215.2148"
       id="text1629-3-5-6-1-0-6-7-2-6-0-6-7"><tspan
         sodipodi:role="line"
         style="font-size:50.8px;stroke-width:0.264583"
         x="-1884.2081"
         y="8215.2148"
         id="tspan8170-5-9-7-3-6-2-8-2-6-2-5">Many thanks to ...</tspan></text>
    <text
       xml:space="preserve"
       style="font-style:normal;font-weight:normal;font-size:50.8px;line-height:1.25;font-family:sans-serif;fill:#000000;fill-opacity:1;stroke:none;stroke-width:0.264583"
       x="-1876.1172"
       y="7036.5098"
       id="text1629-3-5-6-1-0-6-7-2-9"><tspan
         sodipodi:role="line"
         style="font-size:50.8px;stroke-width:0.264583"
         x="-1876.1172"
         y="7036.5098"
         id="tspan3914-7-3-2-2-9-0-9-2-7">Challenge 2: </tspan><tspan
         sodipodi:role="line"
         style="font-size:50.8px;stroke-width:0.264583"
         x="-1876.1172"
         y="7100.0098"
         id="tspan8170-5-9-7-3-6-2-8-3">Storage</tspan></text>
    <image
       width="298.97916"
       height="233.89166"
       preserveAspectRatio="none"
       xlink:href="Kubernetes%20setup@RCSB.jpg"
       id="image9359"
       x="-957.91205"
       y="1296.7014" />
    <text
       xml:space="preserve"
       style="font-style:normal;font-weight:normal;font-size:22.5778px;line-height:1.25;font-family:sans-serif;fill:#000000;fill-opacity:1;stroke:none;stroke-width:0.264583"
       x="-1695.5927"
       y="5780.8193"
       id="text32787"><tspan
         sodipodi:role="line"
         id="tspan32785"
         style="font-size:22.5778px;stroke-width:0.264583"
         x="-1695.5927"
         y="5780.8193">like CI/CD</tspan><tspan
         sodipodi:role="line"
         style="font-size:22.5778px;stroke-width:0.264583"
         x="-1695.5927"
         y="5809.0415"
         id="tspan48846">otherwise what works today may stop working tomorrow</tspan></text>
    <text
       xml:space="preserve"
       style="font-style:normal;font-weight:normal;font-size:22.5778px;line-height:1.25;font-family:sans-serif;fill:#000000;fill-opacity:1;stroke:none;stroke-width:0.264583"
       x="-1787.0704"
       y="6257.1953"
       id="text32787-0"><tspan
         sodipodi:role="line"
         id="tspan32785-2"
         style="font-size:22.5778px;stroke-width:0.264583"
         x="-1787.0704"
         y="6257.1953">developers must know the basics</tspan><tspan
         sodipodi:role="line"
         style="font-size:22.5778px;stroke-width:0.264583"
         x="-1787.0704"
         y="6285.4175"
         id="tspan47230">devops must be pretty advanced</tspan><tspan
         sodipodi:role="line"
         style="font-size:22.5778px;stroke-width:0.264583"
         x="-1787.0704"
         y="6313.6396"
         id="tspan47234">using k8s implies architectural changes</tspan><tspan
         sodipodi:role="line"
         style="font-size:22.5778px;stroke-width:0.264583"
         x="-1787.0704"
         y="6341.8623"
         id="tspan47236">using k8s implies understanding of its capabilities</tspan></text>
    <text
       xml:space="preserve"
       style="font-style:normal;font-weight:normal;font-size:22.5778px;line-height:1.25;font-family:sans-serif;fill:#000000;fill-opacity:1;stroke:none;stroke-width:0.264583"
       x="-1798.4116"
       y="6580.7529"
       id="text32787-0-6"><tspan
         sodipodi:role="line"
         style="font-size:22.5778px;stroke-width:0.264583"
         x="-1798.4116"
         y="6580.7529"
         id="tspan47236-3">unlimited possibilities in configuring/customizing runners</tspan><tspan
         sodipodi:role="line"
         style="font-size:22.5778px;stroke-width:0.264583"
         x="-1798.4116"
         y="6608.9751"
         id="tspan72990">resuse open-source helm charts</tspan><tspan
         sodipodi:role="line"
         style="font-size:22.5778px;stroke-width:0.264583"
         x="-1798.4116"
         y="6637.1973"
         id="tspan72992">allows quick learning in Helm; setting up secrets etc</tspan></text>
    <text
       xml:space="preserve"
       style="font-style:normal;font-weight:normal;font-size:22.5778px;line-height:1.25;font-family:sans-serif;fill:#000000;fill-opacity:1;stroke:none;stroke-width:0.264583"
       x="-1622.5554"
       y="7371.3506"
       id="text32787-0-9"><tspan
         sodipodi:role="line"
         style="font-size:22.5778px;stroke-width:0.264583"
         x="-1622.5554"
         y="7371.3506"
         id="tspan47236-4">Harbor</tspan></text>
    <text
       xml:space="preserve"
       style="font-style:normal;font-weight:normal;font-size:22.5778px;line-height:1.25;font-family:sans-serif;fill:#000000;fill-opacity:1;stroke:none;stroke-width:0.264583"
       x="-1624.4003"
       y="7152.9702"
       id="text32787-0-9-7"><tspan
         sodipodi:role="line"
         style="font-size:22.5778px;stroke-width:0.264583"
         x="-1624.4003"
         y="7152.9702"
         id="tspan47236-4-8">Ceph</tspan></text>
    <text
       xml:space="preserve"
       style="font-style:normal;font-weight:normal;font-size:22.5778px;line-height:1.25;font-family:sans-serif;fill:#000000;fill-opacity:1;stroke:none;stroke-width:0.264583"
       x="-2310.9067"
       y="4907.3145"
       id="text32787-2"><tspan
         sodipodi:role="line"
         id="tspan32785-6"
         style="font-size:22.5778px;stroke-width:0.264583"
         x="-2310.9067"
         y="4907.3145">Skaffold: dev + devops</tspan></text>
    <text
       xml:space="preserve"
       style="font-style:normal;font-weight:normal;font-size:22.5778px;line-height:1.25;font-family:sans-serif;fill:#000000;fill-opacity:1;stroke:none;stroke-width:0.264583"
       x="-2315.3137"
       y="5025.6221"
       id="text32787-2-1"><tspan
         sodipodi:role="line"
         id="tspan32785-6-8"
         style="font-size:22.5778px;stroke-width:0.264583"
         x="-2315.3137"
         y="5025.6221">Helm over Kustomize (IDEA support)</tspan></text>
    <text
       xml:space="preserve"
       style="font-style:normal;font-weight:normal;font-size:22.5778px;line-height:1.25;font-family:sans-serif;fill:#000000;fill-opacity:1;stroke:none;stroke-width:0.264583"
       x="-2275.9668"
       y="3171.6316"
       id="text32787-2-3"><tspan
         sodipodi:role="line"
         id="tspan32785-6-7"
         style="font-size:22.5778px;stroke-width:0.264583"
         x="-2275.9668"
         y="3171.6316">IDEA and Octant</tspan><tspan
         sodipodi:role="line"
         style="font-size:22.5778px;stroke-width:0.264583"
         x="-2275.9668"
         y="3199.8538"
         id="tspan78124">Elastic</tspan></text>
    <text
       xml:space="preserve"
       style="font-style:normal;font-weight:normal;font-size:22.5778px;line-height:1.25;font-family:sans-serif;fill:#000000;fill-opacity:1;stroke:none;stroke-width:0.264583"
       x="-1662.7771"
       y="2528.5396"
       id="text32787-2-3-0"><tspan
         sodipodi:role="line"
         style="font-size:22.5778px;stroke-width:0.264583"
         x="-1662.7771"
         y="2528.5396"
         id="tspan78124-8">on-permises VS cloudprovider</tspan><tspan
         sodipodi:role="line"
         style="font-size:22.5778px;stroke-width:0.264583"
         x="-1662.7771"
         y="2556.7617"
         id="tspan267548">k8s differs</tspan><tspan
         sodipodi:role="line"
         style="font-size:22.5778px;stroke-width:0.264583"
         x="-1662.7771"
         y="2584.9841"
         id="tspan267550">even experienced teams may have issues</tspan></text>
    <text
       xml:space="preserve"
       style="font-style:normal;font-weight:normal;font-size:22.5778px;line-height:1.25;font-family:sans-serif;fill:#000000;fill-opacity:1;stroke:none;stroke-width:0.264583"
       x="-2710.1182"
       y="2519.2612"
       id="text32787-2-3-43"><tspan
         sodipodi:role="line"
         style="font-size:22.5778px;stroke-width:0.264583"
         x="-2710.1182"
         y="2519.2612"
         id="tspan78124-4">In our case we bound to SDSC</tspan><tspan
         sodipodi:role="line"
         style="font-size:22.5778px;stroke-width:0.264583"
         x="-2710.1182"
         y="2547.4834"
         id="tspan251295">basically means on-permises deployment i.e. pros and cons</tspan></text>
    <text
       xml:space="preserve"
       style="font-style:normal;font-weight:normal;font-size:22.5778px;line-height:1.25;font-family:sans-serif;fill:#000000;fill-opacity:1;stroke:none;stroke-width:0.264583"
       x="-2285.8113"
       y="4150.6904"
       id="text32787-2-3-5"><tspan
         sodipodi:role="line"
         id="tspan32785-6-7-9"
         style="font-size:22.5778px;stroke-width:0.264583"
         x="-2285.8113"
         y="4150.6904">kubectl is your friend</tspan><tspan
         sodipodi:role="line"
         style="font-size:22.5778px;stroke-width:0.264583"
         x="-2285.8113"
         y="4178.9126"
         id="tspan81090">know namespaces</tspan><tspan
         sodipodi:role="line"
         style="font-size:22.5778px;stroke-width:0.264583"
         x="-2285.8113"
         y="4207.1348"
         id="tspan81088">get events</tspan><tspan
         sodipodi:role="line"
         style="font-size:22.5778px;stroke-width:0.264583"
         x="-2285.8113"
         y="4235.3574"
         id="tspan81092">get logs</tspan></text>
    <text
       xml:space="preserve"
       style="font-style:normal;font-weight:normal;font-size:22.5778px;line-height:1.25;font-family:sans-serif;fill:#000000;fill-opacity:1;stroke:none;stroke-width:0.264583"
       x="-1634.8203"
       y="6943.4458"
       id="text32787-0-9-7-4"><tspan
         sodipodi:role="line"
         style="font-size:22.5778px;stroke-width:0.264583"
         x="-1634.8203"
         y="6943.4458"
         id="tspan47236-4-8-5">Multicluster</tspan></text>
    <text
       xml:space="preserve"
       style="font-style:normal;font-weight:normal;font-size:22.5778px;line-height:1.25;font-family:sans-serif;fill:#000000;fill-opacity:1;stroke:none;stroke-width:0.264583"
       x="-1646.3055"
       y="7663.9233"
       id="text32787-0-9-1"><tspan
         sodipodi:role="line"
         style="font-size:22.5778px;stroke-width:0.264583"
         x="-1646.3055"
         y="7663.9233"
         id="tspan47236-4-0">Ongoing effort</tspan><tspan
         sodipodi:role="line"
         style="font-size:22.5778px;stroke-width:0.264583"
         x="-1646.3055"
         y="7692.1455"
         id="tspan66866">Have dedicated Elastic cluster</tspan><tspan
         sodipodi:role="line"
         style="font-size:22.5778px;stroke-width:0.264583"
         x="-1646.3055"
         y="7720.3677"
         id="tspan66868" /></text>
    <text
       xml:space="preserve"
       style="font-style:normal;font-weight:normal;font-size:22.5778px;line-height:1.25;font-family:sans-serif;fill:#000000;fill-opacity:1;stroke:none;stroke-width:0.264583"
       x="-1635.9244"
       y="8014.001"
       id="text32787-0-9-1-0"><tspan
         sodipodi:role="line"
         style="font-size:22.5778px;stroke-width:0.264583"
         x="-1635.9244"
         y="8014.001"
         id="tspan70213">sub-domain aka host based routing e.g. arches.k8s.rcsb.org</tspan><tspan
         sodipodi:role="line"
         style="font-size:22.5778px;stroke-width:0.264583"
         x="-1635.9244"
         y="8042.2231"
         id="tspan70217">alas path based routing ain't supported by our system, as otherwise does not require external DNS</tspan><tspan
         sodipodi:role="line"
         style="font-size:22.5778px;stroke-width:0.264583"
         x="-1635.9244"
         y="8070.4453"
         id="tspan66868-5" /></text>
    <text
       xml:space="preserve"
       style="font-style:normal;font-weight:normal;font-size:22.5778px;line-height:1.25;font-family:sans-serif;fill:#000000;fill-opacity:1;stroke:none;stroke-width:0.264583"
       x="-1640.2394"
       y="8379.0605"
       id="text32787-0-9-1-0-2"><tspan
         sodipodi:role="line"
         style="font-size:22.5778px;stroke-width:0.264583"
         x="-1640.2394"
         y="8379.0605"
         id="tspan70217-4">Jeremy Henry; Henry Chao;</tspan><tspan
         sodipodi:role="line"
         style="font-size:22.5778px;stroke-width:0.264583"
         x="-1640.2394"
         y="8407.2822"
         id="tspan79680">Jose Duarte</tspan><tspan
         sodipodi:role="line"
         style="font-size:22.5778px;stroke-width:0.264583"
         x="-1640.2394"
         y="8435.5049"
         id="tspan79682">SDSC team</tspan><tspan
         sodipodi:role="line"
         style="font-size:22.5778px;stroke-width:0.264583"
         x="-1640.2394"
         y="8463.7275"
         id="tspan66868-5-7" /></text>
    <image
       width="212.19583"
       height="162.71875"
       preserveAspectRatio="none"
       xlink:href="Screenshot_20230201_101133.png"
       id="image82837"
       x="-1473.1855"
       y="-1123.3201" />
    <image
       width="75.66526"
       height="50.691391"
       preserveAspectRatio="none"
       xlink:href="Kubernetes%20setup@RCSB_concept_map.jpg"
       id="image144260"
       x="-925.94305"
       y="1354.8472" />
    <text
       xml:space="preserve"
       style="font-style:normal;font-weight:normal;font-size:22.5778px;line-height:1.25;font-family:sans-serif;fill:#000000;fill-opacity:1;stroke:none;stroke-width:0.264583"
       x="-1767.4861"
       y="1236.9677"
       id="text32787-2-3-4"><tspan
         sodipodi:role="line"
         style="font-size:22.5778px;stroke-width:0.264583"
         x="-1767.4861"
         y="1236.9677"
         id="tspan142956">Things to consider:</tspan><tspan
         sodipodi:role="line"
         style="font-size:22.5778px;stroke-width:0.264583"
         x="-1767.4861"
         y="1265.1899"
         id="tspan188408">    - Migration process</tspan><tspan
         sodipodi:role="line"
         style="font-size:22.5778px;stroke-width:0.264583"
         x="-1767.4861"
         y="1293.4121"
         id="tspan188410">        A/B switch VS smooth migration</tspan><tspan
         sodipodi:role="line"
         style="font-size:22.5778px;stroke-width:0.264583"
         x="-1767.4861"
         y="1321.6344"
         id="tspan189294">    - Monitoring</tspan><tspan
         sodipodi:role="line"
         style="font-size:22.5778px;stroke-width:0.264583"
         x="-1767.4861"
         y="1349.8567"
         id="tspan213064">    - CI/CD</tspan><tspan
         sodipodi:role="line"
         style="font-size:22.5778px;stroke-width:0.264583"
         x="-1767.4861"
         y="1378.0789"
         id="tspan213516">    - Development</tspan><tspan
         sodipodi:role="line"
         style="font-size:22.5778px;stroke-width:0.264583"
         x="-1767.4861"
         y="1406.3011"
         id="tspan213518">         Required knowledge base</tspan><tspan
         sodipodi:role="line"
         style="font-size:22.5778px;stroke-width:0.264583"
         x="-1767.4861"
         y="1434.5234"
         id="tspan213520">         Tools/utilities</tspan><tspan
         sodipodi:role="line"
         style="font-size:22.5778px;stroke-width:0.264583"
         x="-1767.4861"
         y="1462.7456"
         id="tspan213522">         New mindset</tspan><tspan
         sodipodi:role="line"
         style="font-size:22.5778px;stroke-width:0.264583"
         x="-1767.4861"
         y="1490.9679"
         id="tspan213524">    - Infrastructure:</tspan><tspan
         sodipodi:role="line"
         style="font-size:22.5778px;stroke-width:0.264583"
         x="-1767.4861"
         y="1519.1902"
         id="tspan230568" /><tspan
         sodipodi:role="line"
         style="font-size:22.5778px;stroke-width:0.264583"
         x="-1767.4861"
         y="1547.4124"
         id="tspan142960">         Storage</tspan><tspan
         sodipodi:role="line"
         style="font-size:22.5778px;stroke-width:0.264583"
         x="-1767.4861"
         y="1575.6346"
         id="tspan189298">             NFS -&gt; CEPHFS*</tspan><tspan
         sodipodi:role="line"
         style="font-size:22.5778px;stroke-width:0.264583"
         x="-1767.4861"
         y="1603.8569"
         id="tspan201300" /><tspan
         sodipodi:role="line"
         style="font-size:22.5778px;stroke-width:0.264583"
         x="-1767.4861"
         y="1632.0792"
         id="tspan208121">    - Technical challenges</tspan><tspan
         sodipodi:role="line"
         style="font-size:22.5778px;stroke-width:0.264583"
         x="-1767.4861"
         y="1660.3014"
         id="tspan78124-3">    - Choosing 3rd party tools/utilities/infrastructure</tspan><tspan
         sodipodi:role="line"
         style="font-size:22.5778px;stroke-width:0.264583"
         x="-1767.4861"
         y="1688.5237"
         id="tspan190740">    </tspan></text>
    <text
       xml:space="preserve"
       style="font-style:normal;font-weight:normal;font-size:25.4px;line-height:1.25;font-family:sans-serif;fill:#000000;fill-opacity:1;stroke:none;stroke-width:0.264583"
       x="-1006.9593"
       y="1279.3539"
       id="text151442"><tspan
         sodipodi:role="line"
         id="tspan151440"
         style="font-size:25.4px;stroke-width:0.264583"
         x="-1006.9593"
         y="1279.3539">Concept maps help greatly!</tspan></text>
    <image
       width="1.5707632"
       height="0.97321165"
       preserveAspectRatio="none"
       xlink:href="UC-San-Diego-Super-Computer-1200x500.jpg"
       id="image181139"
       x="-1428.1832"
       y="-410.22128" />
    <image
       width="1.7066367"
       height="1.066648"
       preserveAspectRatio="none"
       xlink:href="PR20201208_Expanse_640x400.jpg"
       id="image181181"
       x="-1429.1552"
       y="-408.95456" />
    <image
       width="456.84579"
       height="296.95944"
       preserveAspectRatio="none"
       xlink:href="Peek%202023-02-06%2010-40.gif"
       id="image199602"
       x="-1686.87"
       y="1673.387" />
    <image
       width="74.700943"
       height="78.846733"
       preserveAspectRatio="none"
       xlink:href="Kubernetes%20setup@RCSB_technical.jpg"
       id="image199954"
       x="-831.53656"
       y="1319.6085" />
    <image
       width="62.487648"
       height="58.965504"
       preserveAspectRatio="none"
       xlink:href="Kubernetes%20setup@RCSB_workflows.jpg"
       id="image203071"
       x="-830.3515"
       y="1462.8297" />
    <g
       id="g235155"
       transform="matrix(3.8869126,0,0,3.5395041,-1829.5722,2992.4658)">
	<g
   id="g235143">
		<linearGradient
   id="SVGID_1_"
   gradientUnits="userSpaceOnUse"
   x1="0.78979999"
   y1="40.089298"
   x2="33.3172"
   y2="40.089298">
			<stop
   offset="0.2581"
   style="stop-color:#F97A12"
   id="stop235065" />

			<stop
   offset="0.4591"
   style="stop-color:#B07B58"
   id="stop235067" />

			<stop
   offset="0.7241"
   style="stop-color:#577BAE"
   id="stop235069" />

			<stop
   offset="0.9105"
   style="stop-color:#1E7CE5"
   id="stop235071" />

			<stop
   offset="1"
   style="stop-color:#087CFA"
   id="stop235073" />

		</linearGradient>

		<polygon
   style="fill:url(#SVGID_1_)"
   points="9.2,25.6 33.3,35 17.7,54.6 0.8,41.2 "
   id="polygon235076" />

		<linearGradient
   id="SVGID_2_"
   gradientUnits="userSpaceOnUse"
   x1="25.767401"
   y1="24.879999"
   x2="79.424004"
   y2="54.57">
			<stop
   offset="0"
   style="stop-color:#F97A12"
   id="stop235078" />

			<stop
   offset="7.179946e-002"
   style="stop-color:#CB7A3E"
   id="stop235080" />

			<stop
   offset="0.1541"
   style="stop-color:#9E7B6A"
   id="stop235082" />

			<stop
   offset="0.242"
   style="stop-color:#757B91"
   id="stop235084" />

			<stop
   offset="0.3344"
   style="stop-color:#537BB1"
   id="stop235086" />

			<stop
   offset="0.4324"
   style="stop-color:#387CCC"
   id="stop235088" />

			<stop
   offset="0.5381"
   style="stop-color:#237CE0"
   id="stop235090" />

			<stop
   offset="0.6552"
   style="stop-color:#147CEF"
   id="stop235092" />

			<stop
   offset="0.7925"
   style="stop-color:#0B7CF7"
   id="stop235094" />

			<stop
   offset="1"
   style="stop-color:#087CFA"
   id="stop235096" />

		</linearGradient>

		<polygon
   style="fill:url(#SVGID_2_)"
   points="48.2,1.1 70,18.7 68.7,59.2 41.8,70 25.6,59.6 49.3,35 38.9,12.3 "
   id="polygon235099" />

		<linearGradient
   id="SVGID_3_"
   gradientUnits="userSpaceOnUse"
   x1="63.227699"
   y1="42.915298"
   x2="48.290298"
   y2="-1.7191">
			<stop
   offset="0"
   style="stop-color:#FE315D"
   id="stop235101" />

			<stop
   offset="7.840246e-002"
   style="stop-color:#CB417E"
   id="stop235103" />

			<stop
   offset="0.1601"
   style="stop-color:#9E4E9B"
   id="stop235105" />

			<stop
   offset="0.2474"
   style="stop-color:#755BB4"
   id="stop235107" />

			<stop
   offset="0.3392"
   style="stop-color:#5365CA"
   id="stop235109" />

			<stop
   offset="0.4365"
   style="stop-color:#386DDB"
   id="stop235111" />

			<stop
   offset="0.5414"
   style="stop-color:#2374E9"
   id="stop235113" />

			<stop
   offset="0.6576"
   style="stop-color:#1478F3"
   id="stop235115" />

			<stop
   offset="0.794"
   style="stop-color:#0B7BF8"
   id="stop235117" />

			<stop
   offset="1"
   style="stop-color:#087CFA"
   id="stop235119" />

		</linearGradient>

		<polygon
   style="fill:url(#SVGID_3_)"
   points="38.9,12.3 48.2,1.1 70,18.7 48.7,43.9 "
   id="polygon235122" />

		<linearGradient
   id="SVGID_4_"
   gradientUnits="userSpaceOnUse"
   x1="10.7204"
   y1="16.473"
   x2="55.523701"
   y2="90.580002">
			<stop
   offset="0"
   style="stop-color:#FE315D"
   id="stop235124" />

			<stop
   offset="4.023279e-002"
   style="stop-color:#F63462"
   id="stop235126" />

			<stop
   offset="0.1037"
   style="stop-color:#DF3A71"
   id="stop235128" />

			<stop
   offset="0.1667"
   style="stop-color:#C24383"
   id="stop235130" />

			<stop
   offset="0.2912"
   style="stop-color:#AD4A91"
   id="stop235132" />

			<stop
   offset="0.5498"
   style="stop-color:#755BB4"
   id="stop235134" />

			<stop
   offset="0.9175"
   style="stop-color:#1D76ED"
   id="stop235136" />

			<stop
   offset="1"
   style="stop-color:#087CFA"
   id="stop235138" />

		</linearGradient>

		<polygon
   style="fill:url(#SVGID_4_)"
   points="32.1,2.7 53.7,27.4 33.7,58.1 5.6,68.3 10.1,52.5 16,33.1 0,27.7 10.1,0 "
   id="polygon235141" />

	</g>

	<g
   id="g235153">
		<rect
   x="13.7"
   y="13.5"
   style="fill:#000000"
   width="43.200001"
   height="43.200001"
   id="rect235145" />

		<rect
   x="17.700001"
   y="48.599998"
   style="fill:#ffffff"
   width="16.200001"
   height="2.7"
   id="rect235147" />

		<polygon
   style="fill:#ffffff"
   points="20.4,33.7 20.4,37 29.4,37 29.4,33.7 26.9,33.7 26.9,22.4 29.4,22.4 29.4,19.1 20.4,19.1 20.4,22.4 23,22.4 23,33.7 "
   id="polygon235149" />

		<path
   style="fill:#ffffff"
   d="M 38,37.3 C 36.6,37.3 35.4,37 34.5,36.5 33.6,36 32.8,35.3 32.2,34.6 l 2.5,-2.8 c 0.5,0.6 1,1 1.5,1.3 0.5,0.3 1.1,0.5 1.7,0.5 0.7,0 1.3,-0.2 1.8,-0.7 0.4,-0.5 0.6,-1.2 0.6,-2.3 V 19.1 h 4 v 11.7 c 0,1.1 -0.1,2 -0.4,2.8 -0.3,0.8 -0.7,1.4 -1.3,2 -0.5,0.5 -1.2,1 -2,1.2 -0.8,0.3 -1.6,0.5 -2.6,0.5"
   id="path235151" />

	</g>

</g>
    <text
       xml:space="preserve"
       style="font-size:25.4px;line-height:1.25;font-family:sans-serif;stroke-width:0.264583"
       x="-1859.0931"
       y="3428.8223"
       id="text238336"><tspan
         sodipodi:role="line"
         id="tspan238334"
         style="stroke-width:0.264583"
         x="-1859.0931"
         y="3428.8223">* not affilated with any of them</tspan></text>
    <g
       id="g239630"
       transform="matrix(1.2754643,0,0,1.2754643,-1481.1536,3029.3964)">
      <g
         id="Layer_5">
</g>
      <g
         id="Layer_2">
</g>
      <g
         id="Layer_4">
</g>
      <g
         id="Layer_7">
</g>
      <g
         id="Layer_6">
</g>
      <g
         id="Layer_8">
	<g
   id="g239593">
		<g
   id="g239567">
			<g
   id="g239565">
				<path
   class="st1"
   d="m 159.9,100 c -3.3,-1.9 -5.8,-4.5 -7.8,-7.8 -1.9,-3.3 -2.9,-6.8 -2.9,-10.6 0,-3.8 1,-7.3 2.9,-10.6 1.9,-3.3 4.5,-5.9 7.8,-7.8 3.3,-1.9 6.8,-2.9 10.5,-2.9 3.8,0 7.2,1 10.5,2.9 3.2,1.9 5.8,4.5 7.7,7.8 1.9,3.3 2.9,6.8 2.9,10.6 0,3.8 -1,7.3 -2.9,10.6 -1.9,3.3 -4.5,5.9 -7.7,7.8 -3.2,1.9 -6.7,2.9 -10.5,2.9 -3.8,0 -7.2,-0.9 -10.5,-2.9 z m 18.6,-3.7 c 2.5,-1.6 4.5,-3.6 6,-6.2 1.5,-2.6 2.2,-5.4 2.2,-8.5 0,-3 -0.7,-5.8 -2.2,-8.4 -1.5,-2.6 -3.5,-4.7 -6,-6.2 -2.5,-1.5 -5.2,-2.3 -8.1,-2.3 -2.9,0 -5.6,0.8 -8.1,2.3 -2.5,1.5 -4.5,3.6 -6,6.2 -1.5,2.6 -2.2,5.4 -2.2,8.4 0,3 0.8,5.9 2.2,8.5 1.5,2.6 3.5,4.7 6,6.2 2.5,1.5 5.2,2.3 8.1,2.3 2.9,0 5.6,-0.8 8.1,-2.3 z"
   id="path239553" />

				<path
   class="st1"
   d="m 208.3,100 c -3.3,-1.9 -5.8,-4.5 -7.8,-7.8 -1.9,-3.3 -2.9,-6.8 -2.9,-10.6 0,-3.8 1,-7.3 2.9,-10.6 1.9,-3.3 4.5,-5.9 7.8,-7.8 3.3,-1.9 6.8,-2.9 10.5,-2.9 2.8,0 5.5,0.6 8,1.6 2.6,1.1 4.8,2.7 6.8,4.6 l -3.2,3.2 c -1.5,-1.6 -3.3,-2.9 -5.3,-3.8 -2,-0.9 -4.1,-1.4 -6.3,-1.4 -2.9,0 -5.6,0.8 -8.1,2.3 -2.5,1.5 -4.5,3.6 -6,6.2 -1.5,2.6 -2.2,5.4 -2.2,8.4 0,3 0.8,5.9 2.2,8.5 1.5,2.6 3.5,4.7 6,6.2 2.5,1.5 5.2,2.3 8.1,2.3 2.2,0 4.3,-0.5 6.3,-1.4 2,-0.9 3.8,-2.2 5.3,-3.8 l 3.2,3.2 c -2,2 -4.2,3.5 -6.8,4.6 -2.6,1.1 -5.2,1.7 -8,1.7 -3.8,0.2 -7.3,-0.7 -10.5,-2.7 z"
   id="path239555" />

				<path
   class="st1"
   d="M 250.5,65.4 H 236.6 V 61 H 269 v 4.4 h -13.9 v 36.8 h -4.7 V 65.4 Z"
   id="path239557" />

				<path
   class="st1"
   d="m 303.7,92.9 h -23 l -4.1,9.4 h -5.1 L 289.6,61 h 5.1 l 18.2,41.2 h -5.1 z m -1.9,-4.5 -9.5,-21.7 -9.6,21.7 z"
   id="path239559" />

				<path
   class="st1"
   d="m 320.4,61 h 4.7 l 25.6,33.5 V 61 h 4.7 v 41.2 h -4.7 L 325,68.7 v 33.5 h -4.7 V 61 Z"
   id="path239561" />

				<path
   class="st1"
   d="M 376.6,65.4 H 362.7 V 61 h 32.4 v 4.4 h -13.9 v 36.8 h -4.7 V 65.4 Z"
   id="path239563" />

			</g>

		</g>

		<g
   id="g239591">
			<circle
   class="st2"
   cx="71.400002"
   cy="79.099998"
   r="52.5"
   id="circle239569" />

			<path
   class="st3"
   d="m 76.6,124.7 v 0 c 0,2.8 -2.2,5 -5,5 v 0 c -2.8,0 -5,-2.2 -5,-5 v 0 c 0,-2.7 2.2,-5 5,-5 v 0 c 2.8,0 5,2.3 5,5 z"
   id="path239571" />

			<path
   class="st4"
   d="m 71.4,26.6 c -29,0 -52.5,23.5 -52.5,52.5 0,13.9 5.4,26.6 14.3,35.9 v 0 c 1.4,1.5 2.9,2.8 4.4,4.1 l 3.6,-9.8 c -1.7,-1.7 -3.3,-3.6 -4.7,-5.6 v 0 c -4.9,-7 -7.9,-15.5 -7.9,-24.7 0,-23.7 19.2,-42.8 42.8,-42.8 23.6,0 42.8,19.2 42.8,42.8 0,9 -2.8,17.3 -7.5,24.2 -1.5,2.1 -3.1,4.1 -4.9,5.9 l 3.6,9.8 c 1.6,-1.4 3.2,-2.8 4.6,-4.4 8.6,-9.3 13.8,-21.8 13.8,-35.5 0.1,-28.9 -23.4,-52.4 -52.4,-52.4 z"
   id="path239573" />

			<path
   class="st5"
   d="m 101.8,109.2 -23.3,-63.7 -3.3,1.2 -0.6,-2.8 -1.2,0.2 14.8,74.3 c -4.3,1.9 -9,3 -14,3.4 -1,0.1 -1.9,0.1 -2.9,0.1 -0.8,0 -1.6,0 -2.4,-0.1 -5.1,-0.3 -9.9,-1.5 -14.4,-3.4 l 14.8,-74.3 -1.2,-0.2 -0.6,2.8 -3.2,-1.2 -23.4,63.8 -3.6,9.8 c 0.4,0.4 0.9,0.8 1.3,1.1 v -0.1 0 0.1 c 0,0 0,0 0,0 v 0 c 0.7,0.6 1.5,1.1 2.3,1.7 1.2,0.8 2.4,1.6 3.7,2.4 v 0 c 7.8,4.6 16.9,7.3 26.6,7.3 9.9,0 19.2,-2.8 27.1,-7.5 v 0 c 1.2,-0.7 2.3,-1.5 3.4,-2.3 0.9,-0.6 1.7,-1.2 2.5,-1.9 0.4,-0.3 0.7,-0.6 1.1,-0.9 z m -53.9,5.7 c -1.1,-0.8 -2.2,-1.6 -3.3,-2.4 L 66.6,52.6 53.5,118 c -2,-0.9 -3.8,-1.9 -5.6,-3.1 z m 47.4,-0.3 v 0 c -1.9,1.3 -3.8,2.4 -5.9,3.3 L 76.3,52 98.4,112.4 c -1,0.7 -2,1.5 -3.1,2.2 z"
   id="path239575" />

			<g
   id="g239581">
				<polygon
   class="st2"
   points="63.3,24.9 61.1,33.9 66.9,41.2 76.1,41.2 82,33.8 79.9,24.9 71.6,20.7 "
   id="polygon239577" />

				<path
   class="st3"
   d="m 76.5,31.3 v 0 c 0,2.8 -2.2,5 -5,5 v 0 c -2.8,0 -5,-2.2 -5,-5 v 0 c 0,-2.7 2.2,-5 5,-5 v 0 c 2.8,0 5,2.2 5,5 z"
   id="path239579" />

			</g>

			<path
   class="st6"
   d="M 89.6,35.5 86,20.1 71.6,12.9 57.3,20 53.5,35.5 63.6,48.2 h 4.3 v 69.2 h 7 V 48.2 h 4.6 z m -22.7,5.7 -5.8,-7.3 2.2,-9 8.3,-4.1 8.3,4.1 2.1,9 -5.9,7.3 z"
   id="path239583" />

			<g
   id="g239589">
				<path
   class="st2"
   d="m 70.6,121.2 c -2.7,0.4 -4.6,2.9 -4.2,5.7 0.4,2.7 2.9,4.6 5.7,4.2 2.7,-0.4 4.6,-2.9 4.2,-5.7 -0.4,-2.8 -3,-4.6 -5.7,-4.2 z"
   id="path239585" />

				<path
   class="st3"
   d="m 82.2,124.5 c -0.9,-6 -6.5,-10.2 -12.5,-9.3 v 0 c -6,0.9 -10.2,6.5 -9.3,12.5 0.8,5.5 5.5,9.4 10.9,9.4 0.5,0 1.1,0 1.6,-0.1 6,-0.9 10.2,-6.5 9.3,-12.5 z M 72.1,131 c -2.7,0.4 -5.3,-1.5 -5.7,-4.2 -0.4,-2.7 1.5,-5.3 4.2,-5.7 2.7,-0.4 5.3,1.5 5.7,4.2 0.4,2.8 -1.5,5.3 -4.2,5.7 z"
   id="path239587" />

			</g>

		</g>

	</g>

</g>
    </g>
    <g
       style="fill:none"
       id="g239743"
       transform="matrix(0.93356112,0,0,0.93356112,-909.87668,3042.9738)">
      <g
         clip-path="url(#clip0_15_21)"
         id="g239715">
        <path
           d="m 172.05,89.79 c 0.016,-6.9814 -2.126,-13.7971 -6.135,-19.5133 -4.008,-5.7161 -9.686,-10.0531 -16.255,-12.4167 0.598,-3.047 0.899,-6.1448 0.9,-9.25 0.006,-10.2781 -3.248,-20.2933 -9.293,-28.6057 C 135.222,11.6919 126.697,5.51043 116.917,2.3487 107.138,-0.813038 96.6072,-0.792202 86.8401,2.40821 77.073,5.60863 68.5722,11.8238 62.5601,20.16 58.1246,16.7229 52.6898,14.8248 47.0788,14.7535 41.4678,14.6822 35.9865,16.4414 31.465,19.7646 26.9435,23.0879 23.6283,27.7942 22.0214,33.1707 20.4146,38.5471 20.6037,44.3007 22.5601,49.56 15.9754,51.9601 10.2837,56.3191 6.25042,62.0507 2.21719,67.7824 0.0359539,74.6117 1.15291e-4,81.62 -0.018156,88.6256 2.13571,95.4646 6.16517,101.195 c 4.02943,5.731 9.73633,10.072 16.33493,12.425 -0.5841,3.046 -0.8821,6.139 -0.89,9.24 -0.0098,10.266 3.241,20.27 9.2836,28.57 6.0427,8.299 14.5649,14.465 24.338,17.609 9.7731,3.143 20.292,3.102 30.04,-0.119 9.748,-3.22 18.2213,-9.453 24.1983,-17.8 4.423,3.446 9.848,5.355 15.454,5.439 5.606,0.084 11.086,-1.663 15.609,-4.975 4.524,-3.313 7.844,-8.01 9.456,-13.379 1.613,-5.37 1.431,-11.118 -0.519,-16.375 6.588,-2.396 12.284,-6.754 16.319,-12.486 4.036,-5.732 6.217,-12.5637 6.251,-19.574"
           fill="#ffffff"
           id="path239687" />
        <path
           d="m 67.64,73.81 37.65,17.19 38,-33.28 c 0.547,-2.746 0.819,-5.5399 0.81,-8.34 -0.002,-9.065 -2.905,-17.8914 -8.285,-25.1877 C 130.436,16.896 122.863,11.5129 114.203,8.83068 105.544,6.14846 96.254,6.30793 87.6921,9.28575 79.1301,12.2636 71.7459,17.9034 66.62,25.38 l -6.33,32.74 z"
           fill="#fec514"
           id="path239689" />
        <path
           d="m 28.6701,113.68 c -0.5551,2.789 -0.8332,5.626 -0.83,8.47 2e-4,9.103 2.9182,17.966 8.3258,25.288 5.4076,7.323 13.0199,12.719 21.7198,15.397 8.6999,2.678 18.0292,2.497 26.6186,-0.517 8.5894,-3.013 15.9867,-8.701 21.1057,-16.228 l 6.27,-32.67 -8.37,-15.9999 -37.7899,-17.22 z"
           fill="#00bfb3"
           id="path239691" />
        <path
           d="m 28.4401,48.53 25.8,6.09 5.65,-29.34 c -3.5092,-2.6609 -7.7859,-4.1135 -12.1897,-4.1403 -4.4039,-0.0269 -8.698,1.3736 -12.2393,3.9916 -3.5413,2.6179 -6.1393,6.3126 -7.405,10.5307 -1.2657,4.2182 -1.131,8.7328 0.384,12.868 z"
           fill="#f04e98"
           id="path239693" />
        <path
           d="M 26.2002,54.67 C 20.5394,56.5802 15.6146,60.2071 12.1108,65.0461 8.60695,69.8852 6.69825,75.6959 6.65015,81.67 c -0.00407,5.7739 1.74934,11.4122 5.02715,16.1654 3.2777,4.7536 7.9246,8.3966 13.3229,10.4446 l 36.2,-32.72 -6.65,-14.2 z"
           fill="#1ba9f5"
           id="path239695" />
        <path
           d="m 112.23,146.09 c 3.504,2.647 7.77,4.091 12.161,4.114 4.391,0.023 8.672,-1.374 12.203,-3.984 3.532,-2.61 6.124,-6.293 7.391,-10.498 1.266,-4.204 1.138,-8.706 -0.365,-12.832 l -25.78,-6 z"
           fill="#93c90e"
           id="path239697" />
        <path
           d="m 117.47,110.1 28.38,6.63 c 5.664,-1.905 10.592,-5.53 14.097,-10.371 3.505,-4.84 5.411,-10.6533 5.453,-16.6289 -0.005,-5.7617 -1.762,-11.3856 -5.037,-16.1257 -3.276,-4.74 -7.915,-8.3721 -13.303,-10.4143 l -37.12,32.5 z"
           fill="#0077cc"
           id="path239699" />
        <path
           d="m 240.56,120.4 3.44,-0.35 0.24,7 c -7.655,1.156 -15.379,1.791 -23.12,1.9 -8.533,0 -14.58,-2.47 -18.14,-7.41 -3.56,-4.94 -5.337,-12.627 -5.33,-23.06 0,-20.78 8.26,-31.1733 24.78,-31.18 8,0 13.967,2.2334 17.9,6.7 3.934,4.4667 5.907,11.4667 5.92,21 l -0.47,6.76 h -39.12 c 0,6.56 1.187,11.42 3.56,14.58 2.374,3.16 6.5,4.74 12.38,4.74 5.894,0.02 11.88,-0.207 17.96,-0.68 z m -3.2,-25.72 c 0,-7.2733 -1.163,-12.41 -3.49,-15.41 -2.327,-3 -6.12,-4.5033 -11.38,-4.51 -5.26,0 -9.213,1.58 -11.86,4.74 -2.646,3.16 -4.01,8.22 -4.09,15.18 z"
           fill="#1c1e23"
           id="path239701" />
        <path
           d="m 258.65,128.48 v -78 h 8.89 v 78 z"
           fill="#1c1e23"
           id="path239703" />
        <path
           d="m 323.53,86.38 v 29.9 c 0,3 7.38,2.84 7.38,2.84 l -0.45,7.86 c -6.25,0 -11.42,0.52 -14.52,-2.49 -6.713,2.982 -13.985,4.499 -21.33,4.45 -5.447,0 -9.597,-1.543 -12.45,-4.63 -2.853,-3.087 -4.277,-7.523 -4.27,-13.31 0,-5.773 1.463,-10.023 4.39,-12.75 2.927,-2.7266 7.51,-4.3933 13.75,-5 l 18.61,-1.77 v -5.1 c 0,-4 -0.867,-6.8866 -2.6,-8.66 -0.95,-0.8915 -2.07,-1.5815 -3.294,-2.0283 -1.224,-0.4468 -2.525,-0.6413 -3.826,-0.5717 h -23.36 v -7.83 h 22.77 c 6.72,0 11.6,1.5434 14.64,4.63 3.04,3.0867 4.56,7.9067 4.56,14.46 z M 287,110.56 c 0,7.273 3,10.91 9,10.91 5.413,-0.006 10.786,-0.929 15.89,-2.73 l 2.72,-0.95 V 98.23 l -17.51,1.66 c -3.56,0.32 -6.13,1.347 -7.71,3.08 -1.58,1.733 -2.377,4.263 -2.39,7.59 z"
           fill="#1c1e23"
           id="path239705" />
        <path
           d="m 358.24,75.24 c -8.62,0 -12.93,3 -12.93,9 0,2.7734 1,4.73 3,5.87 2,1.14 6.504,2.3267 13.51,3.56 7.04,1.2334 12.02,2.9534 14.94,5.16 2.92,2.207 4.384,6.353 4.39,12.44 0,6.093 -1.956,10.56 -5.87,13.4 -3.913,2.84 -9.623,4.263 -17.13,4.27 -4.9,0 -21.26,-1.82 -21.26,-1.82 l 0.48,-7.7 c 9.4,0.9 16.19,1.57 20.78,1.57 4.59,0 8.08,-0.73 10.49,-2.19 2.41,-1.46 3.61,-3.91 3.61,-7.35 0,-3.44 -1,-5.77 -3.08,-7 -2.08,-1.23 -6.56,-2.39 -13.51,-3.5 -6.95,-1.11 -11.9,-2.73 -14.82,-4.86 -2.92,-2.13 -4.39,-6.09 -4.39,-11.86 0,-5.77 2,-10 6.11,-12.8 4.11,-2.8 9.15,-4.15 15.23,-4.15 4.82,0 21.55,1.23 21.55,1.23 v 7.75 c -8.83,-0.39 -16.05,-1.02 -21.1,-1.02 z"
           fill="#1c1e23"
           id="path239707" />
        <path
           d="M 424,76.1801 H 405.15 V 104.52 c 0,6.793 0.493,11.257 1.48,13.39 1,2.14 3.34,3.2 7.05,3.2 l 10.55,-0.71 0.6,7.35 c -3.995,0.739 -8.04,1.176 -12.1,1.31 -6.16,0 -10.427,-1.503 -12.8,-4.51 -2.373,-3.007 -3.557,-8.737 -3.55,-17.19 V 76.1801 H 388 v -7.7 h 8.42 v -18.14 h 8.77 v 18.14 H 424 Z"
           fill="#1c1e23"
           id="path239709" />
        <path
           d="m 436.36,60.9101 v -10.32 h 8.89 v 10.32 z m 0,67.5699 V 68.4801 h 8.89 V 128.48 Z"
           fill="#1c1e23"
           id="path239711" />
        <path
           d="m 483.76,67.29 c 4.44,0.1895 8.862,0.6672 13.24,1.43 l 2.84,0.35 -0.35,7.23 c -4.646,-0.5886 -9.318,-0.9424 -14,-1.06 -6.72,0 -11.283,1.6 -13.69,4.8 -2.407,3.2 -3.613,9.1267 -3.62,17.78 0,8.667 1.127,14.693 3.38,18.08 2.253,3.387 6.953,5.087 14.1,5.1 l 14,-1.06 0.36,7.35 c -5.45,0.923 -10.955,1.478 -16.48,1.66 -9.24,0 -15.62,-2.373 -19.14,-7.12 -3.52,-4.747 -5.28,-12.747 -5.28,-24 0,-11.26 1.897,-19.1633 5.69,-23.71 3.793,-4.5466 10.11,-6.8233 18.95,-6.83 z"
           fill="#1c1e23"
           id="path239713" />
      </g>
    </g>
    <text
       xml:space="preserve"
       style="font-size:25.4px;line-height:1.25;font-family:sans-serif;stroke-width:0.264583"
       x="-1765.1368"
       y="4249.4336"
       id="text238336-9"><tspan
         sodipodi:role="line"
         id="tspan238334-2"
         style="stroke-width:0.264583"
         x="-1765.1368"
         y="4249.4336">Or how we learned that </tspan><tspan
         sodipodi:role="line"
         style="stroke-width:0.264583"
         x="-1765.1368"
         y="4281.1836"
         id="tspan263693">              &quot;deployments do not create pods, replicasets do&quot; the hard way</tspan></text>
    <image
       width="457.72916"
       height="302.68332"
       preserveAspectRatio="none"
       xlink:href="Screenshot_20230207_155159.png"
       id="image265555"
       x="1418.1241"
       y="3547.9587" />
    <image
       width="280.94751"
       height="210.27707"
       preserveAspectRatio="none"
       xlink:href="IMG_20220408_095836.jpg"
       id="image266247"
       x="-1846.1548"
       y="532.69006" />
    <image
       width="508"
       height="285.75"
       preserveAspectRatio="none"
       xlink:href="Peek%202023-02-08%2010-47.gif"
       id="image266319"
       x="-524.76514"
       y="3554.0269" />
    <image
       width="508"
       height="285.75"
       preserveAspectRatio="none"
       xlink:href="Peek%202023-02-08%2014-58.gif"
       id="image266633"
       x="32.118168"
       y="3554.3855" />
    <image
       width="508"
       height="285.75"
       preserveAspectRatio="none"
       xlink:href="Peek%202023-02-09%2013-51.gif"
       id="image266948"
       x="666.5094"
       y="3550.0718" />
    <image
       width="577.84998"
       height="1311.8042"
       preserveAspectRatio="none"
       xlink:href="github.com_rcsb_rcsb-kube_issues_10(Big%20Screen).png"
       id="image271324"
       x="-517.6131"
       y="4116.4214" />
    <g
       id="g271709"
       transform="matrix(0.26458333,0,0,0.26458333,-1798.6348,4890.4908)">
      <path
         class="cls-1"
         d="m 136.52938,121.13478 c -0.572,-0.54252 -1.19462,-1.12636 -1.81,-1.71761 -12.61677,-12.12115 -22.38092,-26.13637 -28.279,-42.702 -1.65073,-4.63637 -2.89692,-9.36515 -2.67587,-14.35871 0.021,-0.4739 0.0196,-0.94915 0.0523,-1.42214 0.445,-6.44594 4.75912,-9.70322 11.05839,-8.17669 a 27.325,27.325 0 0 1 5.73149,2.19653 c 6.89022,3.45538 12.5062,8.56359 17.67051,14.16571 a 112.52651,112.52651 0 0 1 21.722,33.42965 8.29635,8.29635 0 0 0 0.38946,0.861 c 0.0712,0.12855 0.22232,0.21282 0.55927,0.51883 A 176.357,176.357 0 0 1 241.968,79.06864 c -0.17651,-0.8761 -0.28195,-1.54571 -0.44772,-2.2 a 112.49436,112.49436 0 0 1 -2.65292,-36.95637 84.07478,84.07478 0 0 1 4.44444,-21.76378 31.32555,31.32555 0 0 1 5.47651,-10.17139 15.687,15.687 0 0 1 3.16336,-2.82149 7.026,7.026 0 0 1 8.03255,-0.056 17.27854,17.27854 0 0 1 5.8402,6.73185 53.05435,53.05435 0 0 1 5.26215,14.67654 112.50469,112.50469 0 0 1 2.12263,33.00356 95.59806,95.59806 0 0 1 -3.49052,19.91081 c 7.12171,1.31193 14.20955,2.32869 21.1473,3.97713 a 186.37909,186.37909 0 0 1 20.44069,6.0033 188.31671,188.31671 0 0 1 19.77023,8.5693 c 6.34538,3.16433 12.38553,6.94066 18.71757,10.53829 0.20571,-0.433 0.50439,-0.94982 0.706,-1.50212 a 108.65959,108.65959 0 0 1 32.90081,-46.76227 37.75787,37.75787 0 0 1 11.822,-6.883 17.24558,17.24558 0 0 1 3.67827,-0.84512 c 6.264,-0.71729 8.89351,3.2244 9.35653,7.93183 A 29.94372,29.94372 0 0 1 407.48427,70.80437 87.90551,87.90551 0 0 1 396.75426,95.492 c -6.79016,10.97178 -14.85015,20.85494 -25.09307,28.83042 -0.30234,0.2354 -0.56784,0.51814 -1.07988,0.99029 a 177.77993,177.77993 0 0 1 26.59293,30.88244 10.96227,10.96227 0 0 1 -1.689,0.29762 c -10.59546,0.015 -21.1911,-0.0183 -31.78622,0.0461 a 4.004,4.004 0 0 1 -3.17246,-1.69 147.87522,147.87522 0 0 0 -88.17776,-46.54846 143.35862,143.35862 0 0 0 -30.27955,-1.16923 146.40735,146.40735 0 0 0 -82.53728,31.81054 140.06663,140.06663 0 0 0 -16.97616,15.84186 4.72839,4.72839 0 0 1 -3.86326,1.75742 c -10.12056,-0.0703 -20.24188,-0.035 -30.36293,-0.0349 h -2.15212 c 0.618,-2.408 6.84026,-10.93786 13.88352,-18.55281 5.25247,-5.67881 10.81666,-11.06931 16.46836,-16.81843 z"
         id="path271687" />
      <path
         class="cls-1"
         d="m 394.52934,347.9123 a 176.63854,176.63854 0 0 1 -23.97343,27.16338 c 0.70941,0.59068 1.28594,1.07041 1.86212,1.55057 a 108.31456,108.31456 0 0 1 33.68328,48.14575 34.61831,34.61831 0 0 1 2.202,14.42026 14.88544,14.88544 0 0 1 -0.74786,3.69206 7.20762,7.20762 0 0 1 -8.15793,5.02308 22.23329,22.23329 0 0 1 -6.76276,-2.00629 51.23237,51.23237 0 0 1 -9.18151,-5.8151 107.59183,107.59183 0 0 1 -32.936,-46.7072 c -0.18746,-0.51334 -0.39218,-1.0204 -0.72243,-1.87691 a 194.65008,194.65008 0 0 1 -25.01223,14.00774 181.66925,181.66925 0 0 1 -26.6869,9.72442 187.55649,187.55649 0 0 1 -28.3045,5.38805 c 0.16807,0.84015 0.26446,1.5098 0.43745,2.15907 a 109.172,109.172 0 0 1 2.9708,36.44311 80.804,80.804 0 0 1 -4.42286,22.4773 78.24971,78.24971 0 0 1 -4.16475,8.74473 13.39,13.39 0 0 1 -2.33865,2.97083 c -3.98009,4.109 -8.73225,4.144 -12.61157,-0.0737 a 27.28012,27.28012 0 0 1 -3.907,-5.61776 c -3.07685,-5.77569 -4.6604,-12.056 -5.791,-18.46021 a 116.86329,116.86329 0 0 1 -1.35893,-26.465 94.4795,94.4795 0 0 1 2.88466,-19.18513 c 0.14009,-0.53269 0.268,-1.0696 0.37134,-1.61034 0.0263,-0.13754 -0.0634,-0.2973 -0.17067,-0.73825 A 176.12108,176.12108 0 0 1 160.72146,396.2729 c -0.40992,0.90921 -0.76206,1.67473 -1.10168,2.44579 a 110.47729,110.47729 0 0 1 -30.90112,41.42041 38.16071,38.16071 0 0 1 -12.04706,6.95909 12.08987,12.08987 0 0 1 -6.51516,0.70023 7.11858,7.11858 0 0 1 -5.40329,-4.4892 c -1.41614,-3.424 -1.16526,-6.985 -0.68438,-10.51691 a 55.45267,55.45267 0 0 1 4.30768,-14.25037 112.49985,112.49985 0 0 1 26.51116,-37.76298 c 0.459,-0.43461 0.92981,-0.857 1.38087,-1.29954 a 3.76029,3.76029 0 0 0 0.36534,-0.65529 178.90466,178.90466 0 0 1 -28.469,-31.31672 c 0.98458,-0.0802 1.64327,-0.18 2.30205,-0.1806 10.51436,-0.01 21.029,0.0274 31.54284,-0.0436 a 4.70554,4.70554 0 0 1 3.70344,1.62615 146.94611,146.94611 0 0 0 39.40276,28.88494 139.94667,139.94667 0 0 0 49.70395,14.77367 q 70.68048,6.87067 121.59971,-42.85452 a 7.64571,7.64571 0 0 1 5.99261,-2.44347 c 9.80139,0.12121 19.60512,0.0499 29.408,0.0499 h 2.53353 z"
         id="path271689" />
      <path
         class="cls-1"
         d="m 350.73576,197.76167 c 2.78711,0 5.47037,0.18919 8.11487,-0.0501 2.9951,-0.271 5.139,0.8001 7.32354,2.81308 12.61275,11.62214 25.35732,23.10129 38.05863,34.62729 0.63855,0.57948 1.29039,1.14432 2.1101,1.8701 0.76445,-0.65718 1.48119,-1.24318 2.16483,-1.8655 Q 428.14636,217.27914 447.756,199.37 a 5.44772,5.44772 0 0 1 4.20358,-1.64576 c 3.21888,0.13038 6.44673,0.0375 9.8412,0.0375 V 303.1304 c -1.72309,0.50368 -24.8756,0.60366 -27.63911,0.0611 v -53.362 l -0.53656,-0.25427 c -9.01079,8.21784 -18.0216,16.43564 -27.23786,24.8408 -9.22584,-8.31119 -18.34194,-16.52347 -27.458,-24.73577 l -0.52449,0.19192 c -0.023,4.45359 -0.008,8.90828 -0.0105,13.36233 q -0.004,6.63942 -5.8e-4,13.27882 v 26.87211 h -27.428 c -0.51411,-1.77297 -0.75283,-99.66198 -0.22996,-105.62373 z"
         id="path271691" />
      <path
         class="cls-1"
         d="m 97.63436,197.88229 h 27.26325 c 0.55054,1.75251 0.65821,102.97139 0.0947,105.525 H 97.70468 c -0.15021,-6.70344 -0.04736,-13.38394 -0.06622,-20.06131 -0.01871,-6.62261 -0.0041,-13.24531 -0.0041,-20.03958 H 63.84679 v 39.7406 c -2.05946,0.61518 -25.33374,0.67417 -27.64758,0.123 V 197.89436 h 27.53821 v 37.18876 c 1.96793,0.56844 30.92319,0.67339 33.872,0.12942 0.0082,-2.97713 0.02,-6.02646 0.024,-9.0758 q 0.0063,-4.7433 9.4e-4,-9.4866 0,-4.625 0,-9.25 c 1e-5,-3.07835 0,-6.15668 0,-9.51785 z"
         id="path271693" />
      <path
         class="cls-1"
         d="M 157.5757,303.3683 V 198.1946 c 1.617,-0.52913 61.545,-0.73586 65.46219,-0.20457 v 22.41432 c -0.87869,0.063 -1.7857,0.18341 -2.69279,0.18454 q -16.0086,0.0199 -32.01725,0.009 h -2.96767 v 17.43353 h 33.34652 v 23.19167 h -33.04832 c -0.55339,1.98509 -0.70531,15.81681 -0.25622,19.64583 0.84488,0.0568 1.75,0.16952 2.6553,0.17059 q 16.00862,0.0186 32.01727,0.008 h 2.96945 v 22.32076 z"
         id="path271695" />
      <path
         class="cls-1"
         d="m 254.28291,303.40855 c -0.50074,-2.82232 -0.39948,-103.60181 0.0975,-105.51735 h 27.16208 v 77.76453 c 1.17173,0.0608 2.09122,0.14921 3.01077,0.15005 q 16.128,0.0147 32.2561,0.007 c 0.92562,0 1.85125,0 2.90733,0 V 303.409 Z"
         id="path271697" />
    </g>
    <g
       id="g272198"
       transform="matrix(0.26458333,0,0,0.26458333,-1609.2044,4932.2691)">
      <path
         fill="#2aa2d6"
         fill-rule="evenodd"
         d="m 253.325,113.772 h 98.632 v 21.75 h -98.632 z m -15.68,-37.936 h 76.883 v 21.75 H 215.895 V 37.9 h 21.75 v 37.936"
         id="path272183" />
      <path
         fill="#2aa2d6"
         fill-rule="evenodd"
         d="M 314.528,21.967 H 215.895 V 0.217 h 98.633 z m 15.68,37.936 H 253.325 V 38.152 h 98.632 V 97.839 H 330.208 V 59.903"
         id="path272185" />
      <path
         fill="#212121"
         d="m 21.022,237.944 c -3.692,0 -7.315,-0.634 -10.868,-1.904 -3.553,-1.27 -6.784,-3.22 -9.692,-5.85 l 6.3,-7.545 c 2.215,1.8 4.488,3.23 6.818,4.292 2.331,1.061 4.88,1.592 7.65,1.592 2.215,0 3.935,-0.403 5.157,-1.212 1.223,-0.807 1.835,-1.926 1.835,-3.357 v -0.138 c 0,-0.692 -0.127,-1.304 -0.381,-1.835 -0.254,-0.53 -0.738,-1.027 -1.454,-1.488 -0.727,-0.462 -1.719,-0.923 -2.988,-1.385 -1.27,-0.46 -2.93,-0.946 -4.961,-1.454 -2.458,-0.6 -4.673,-1.268 -6.668,-2.007 -1.985,-0.738 -3.682,-1.65 -5.066,-2.734 a 11.078,11.078 0 0 1 -3.23,-4.05 c -0.763,-1.615 -1.143,-3.623 -1.143,-6.023 v -0.138 c 0,-2.215 0.416,-4.211 1.235,-5.989 a 13.73,13.73 0 0 1 3.473,-4.603 c 1.488,-1.292 3.277,-2.284 5.342,-2.977 2.064,-0.692 4.35,-1.038 6.84,-1.038 3.555,0 6.82,0.531 9.797,1.592 a 28.39,28.39 0 0 1 8.204,4.57 l -5.54,8.03 c -2.167,-1.477 -4.29,-2.642 -6.368,-3.497 -2.076,-0.853 -4.153,-1.28 -6.23,-1.28 -2.077,0 -3.635,0.403 -4.673,1.212 -1.038,0.807 -1.557,1.81 -1.557,3.01 v 0.14 c 0,0.783 0.15,1.464 0.45,2.041 0.3,0.577 0.842,1.096 1.626,1.558 0.797,0.461 1.87,0.9 3.23,1.316 1.374,0.415 3.093,0.899 5.17,1.453 2.458,0.646 4.65,1.373 6.565,2.18 1.915,0.808 3.542,1.778 4.858,2.908 1.315,1.13 2.318,2.457 2.988,3.98 0.668,1.523 1.004,3.346 1.004,5.47 v 0.138 c 0,2.4 -0.44,4.534 -1.304,6.404 -0.876,1.869 -2.089,3.438 -3.646,4.707 -1.558,1.269 -3.427,2.238 -5.585,2.907 -2.157,0.669 -4.557,1.004 -7.188,1.004 z m 52.281,-49.15 h 10.661 v 21.182 l 19.66,-21.183 h 12.877 l -19.73,20.56 20.63,27.899 h -12.807 l -15.023,-20.63 -5.607,5.815 v 14.815 h -10.66 z m 103.646,28.175 -6.437,-15.715 -6.439,15.715 z m -11.214,-28.522 h 9.83 l 20.768,48.805 h -11.145 l -4.43,-10.869 h -20.493 l -4.429,10.869 h -10.87 z m 63.357,0.346 h 36.899 v 9.623 h -26.238 v 10.453 h 23.122 v 9.622 h -23.122 v 18.76 h -10.661 z m 70.695,0 h 36.898 v 9.623 h -26.237 v 10.453 h 23.121 v 9.622 h -23.121 v 18.76 h -10.661 z m 94.37,39.46 c 2.124,0 4.084,-0.393 5.886,-1.177 1.798,-0.785 3.333,-1.87 4.602,-3.254 1.27,-1.385 2.262,-2.988 2.978,-4.812 0.716,-1.822 1.072,-3.773 1.072,-5.85 v -0.137 c 0,-2.077 -0.356,-4.039 -1.072,-5.884 -0.716,-1.847 -1.731,-3.462 -3.047,-4.847 a 14.634,14.634 0 0 0 -4.672,-3.288 c -1.8,-0.807 -3.763,-1.211 -5.885,-1.211 -2.168,0 -4.142,0.392 -5.919,1.176 -1.776,0.786 -3.3,1.87 -4.57,3.254 a 15.37,15.37 0 0 0 -2.975,4.811 c -0.716,1.823 -1.072,3.773 -1.072,5.85 v 0.139 c 0,2.076 0.356,4.037 1.072,5.883 0.716,1.847 1.73,3.463 3.045,4.847 a 14.76,14.76 0 0 0 4.639,3.288 c 1.777,0.807 3.749,1.211 5.918,1.211 z m -0.138,9.83 c -3.738,0 -7.176,-0.658 -10.315,-1.974 -3.137,-1.315 -5.85,-3.092 -8.133,-5.33 -2.286,-2.238 -4.062,-4.869 -5.331,-7.892 -1.27,-3.023 -1.904,-6.265 -1.904,-9.726 v -0.138 c 0,-3.462 0.647,-6.704 1.939,-9.727 a 25.08,25.08 0 0 1 5.365,-7.961 c 2.284,-2.284 5.007,-4.084 8.168,-5.4 3.161,-1.315 6.61,-1.972 10.35,-1.972 3.738,0 7.177,0.657 10.315,1.972 3.138,1.316 5.85,3.093 8.134,5.33 2.284,2.24 4.061,4.87 5.33,7.893 1.268,3.023 1.904,6.265 1.904,9.726 v 0.139 c 0,3.46 -0.646,6.703 -1.938,9.726 a 25.127,25.127 0 0 1 -5.366,7.96 c -2.285,2.285 -5.008,4.085 -8.168,5.4 -3.162,1.316 -6.612,1.973 -10.35,1.973 z m 60.588,-49.29 h 10.661 v 38.836 h 24.16 v 9.623 h -34.821 z m 87.032,38.836 c 2.169,0 4.154,-0.346 5.953,-1.038 1.801,-0.692 3.336,-1.685 4.605,-2.976 1.268,-1.293 2.262,-2.817 2.976,-4.57 0.715,-1.753 1.074,-3.715 1.074,-5.884 v -0.138 c 0,-2.124 -0.359,-4.085 -1.074,-5.884 -0.714,-1.8 -1.708,-3.346 -2.976,-4.639 -1.269,-1.292 -2.804,-2.296 -4.605,-3.011 -1.799,-0.716 -3.784,-1.073 -5.953,-1.073 H 533.4 v 29.213 z M 522.74,188.793 h 18.899 c 3.785,0 7.258,0.612 10.42,1.835 3.16,1.223 5.884,2.919 8.168,5.088 a 22.668,22.668 0 0 1 5.296,7.65 c 1.246,2.93 1.869,6.103 1.869,9.518 v 0.139 c 0,3.414 -0.623,6.599 -1.87,9.553 -1.246,2.953 -3.011,5.515 -5.295,7.684 -2.284,2.17 -5.008,3.876 -8.168,5.122 -3.162,1.247 -6.635,1.87 -10.42,1.87 H 522.74 v -48.459"
         id="path272187" />
    </g>
    <g
       id="g272487"
       transform="matrix(0.26458333,0,0,0.26458333,-1357.7609,4900.1942)">
      <path
         id="path14"
         fill="#ffffff"
         d="M 30.888,178.552 A 148.868,148.868 0 1 1 179.757,327.42 148.868,148.868 0 0 1 30.888,178.552" />
      <path
         id="path16"
         d="m 4.566,384.183 a 3.3,3.3 0 0 1 3.224,-3.307 3.316,3.316 0 0 1 3.305,3.307 v 22.814 H 44.49 v -22.814 a 3.265,3.265 0 1 1 6.528,0 v 52.074 a 3.265,3.265 0 1 1 -6.528,0 V 413.113 H 11.095 v 23.144 a 3.316,3.316 0 0 1 -3.305,3.307 3.3,3.3 0 0 1 -3.224,-3.307 v -52.074"
         class="cls-3" />
      <path
         id="path18"
         d="m 102.188,417.907 -13.307,-29.59 -13.308,29.59 z m -40.914,16.946 23.474,-51.33 a 4.266,4.266 0 0 1 4.133,-2.894 h 0.331 a 4.165,4.165 0 0 1 4.05,2.893 l 23.473,51.246 a 4.404,4.404 0 0 1 0.414,1.654 3.14,3.14 0 0 1 -3.14,3.142 3.564,3.564 0 0 1 -3.224,-2.398 l -6.033,-13.308 H 73.01 l -6.034,13.474 a 3.273,3.273 0 0 1 -3.143,2.232 2.964,2.964 0 0 1 -2.975,-2.977 3.766,3.766 0 0 1 0.415,-1.734"
         class="cls-3" />
      <path
         id="path20"
         d="m 151.374,410.798 c 8.68,0 14.878,-4.462 14.878,-11.902 v -0.165 c 0,-7.108 -5.454,-11.408 -14.795,-11.408 h -17.855 v 23.475 z m -24.3,-26.201 a 3.3,3.3 0 0 1 3.223,-3.307 h 21.654 c 7.11,0 12.813,2.15 16.45,5.786 a 15.98,15.98 0 0 1 4.464,11.407 v 0.165 c 0,9.506 -6.447,15.044 -15.457,16.78 l 14.382,18.514 a 3.556,3.556 0 0 1 1.075,2.398 3.415,3.415 0 0 1 -3.308,3.224 3.805,3.805 0 0 1 -3.057,-1.736 l -16.284,-21.16 h -16.614 v 19.589 a 3.265,3.265 0 1 1 -6.529,0 v -51.66"
         class="cls-3" />
      <path
         id="path22"
         d="m 210.147,433.28 c 8.762,0 14.217,-3.883 14.217,-10.33 v -0.166 c 0,-6.282 -5.29,-9.92 -15.374,-9.92 h -18.266 v 20.417 z m -2.315,-26.201 c 7.854,0 13.308,-3.554 13.308,-10.332 v -0.166 c 0,-5.703 -4.545,-9.422 -12.81,-9.422 h -17.606 v 19.92 z m -23.556,-22.482 a 3.3,3.3 0 0 1 3.224,-3.307 h 21.408 c 6.612,0 11.82,1.9 15.126,5.124 a 12.853,12.853 0 0 1 3.72,9.259 v 0.164 c 0,7.523 -4.63,11.408 -9.175,13.39 6.86,2.067 12.398,6.035 12.398,13.97 v 0.165 c 0,9.919 -8.35,15.787 -20.995,15.787 H 187.5 a 3.3,3.3 0 0 1 -3.224,-3.305 v -51.247"
         class="cls-3" />
      <path
         id="path24"
         d="m 291.072,410.385 v -0.165 c 0,-13.142 -9.588,-23.887 -22.814,-23.887 -13.225,0 -22.648,10.58 -22.648,23.721 v 0.166 c 0,13.142 9.589,23.888 22.813,23.888 13.227,0 22.65,-10.58 22.65,-23.723 z m -52.239,0 v -0.165 c 0,-15.952 11.985,-29.921 29.59,-29.921 17.608,0 29.427,13.803 29.427,29.755 v 0.166 c 0,15.953 -11.986,29.923 -29.592,29.923 -17.606,0 -29.425,-13.805 -29.425,-29.758"
         class="cls-3" />
      <path
         id="path26"
         d="m 333.398,410.798 c 8.68,0 14.879,-4.462 14.879,-11.902 v -0.165 c 0,-7.108 -5.455,-11.408 -14.796,-11.408 h -17.854 v 23.475 z m -24.3,-26.201 a 3.3,3.3 0 0 1 3.224,-3.307 h 21.654 c 7.11,0 12.813,2.15 16.45,5.786 a 15.98,15.98 0 0 1 4.464,11.407 v 0.165 c 0,9.506 -6.448,15.044 -15.457,16.78 l 14.382,18.514 a 3.556,3.556 0 0 1 1.075,2.398 3.415,3.415 0 0 1 -3.308,3.224 3.805,3.805 0 0 1 -3.057,-1.736 l -16.283,-21.16 h -16.615 v 19.589 a 3.265,3.265 0 1 1 -6.53,0 v -51.66"
         class="cls-3" />
      <g
         id="g30"
         clip-path="url(#clip-path)">
        <g
           id="g32">
          <path
             id="path46"
             fill="url(#linear-gradient)"
             d="m 174.401,302.089 -68.654,-30.253 -3.822,43.201 75.497,23.987 -3.02,-36.935"
             style="fill:url(#linearGradient272489)" />
        </g>
      </g>
      <g
         id="g48"
         clip-path="url(#clip-path-2)">
        <g
           id="g50">
          <path
             id="path64"
             fill="url(#linear-gradient-2)"
             d="m 119.188,134.954 h 38.554 v 32.892 h -9.15 v -14.05 a 10.128,10.128 0 1 0 -20.255,0 v 14.05 h -9.15 z m -7.703,72.04 57.2,25.207 -3.944,-48.237 h 7.486 v -16.118 h -5.554 v -32.892 h 5.554 v -9.455 l -30.85,-30.187 v -2.124 a 2.912,2.912 0 0 0 -5.823,0 v 2.124 L 104.703,125.5 v 9.455 h 5.555 v 32.892 h -5.555 v 16.118 h 8.82 l -2.038,23.03"
             style="fill:url(#linear-gradient-2)" />
        </g>
      </g>
      <g
         id="g66"
         clip-path="url(#clip-path-3)">
        <g
           id="g68">
          <path
             id="path82"
             fill="url(#linear-gradient-3)"
             d="m 108.135,244.851 63.888,28.156 -0.96,-11.725 -61.967,-27.305 -0.961,10.874"
             style="fill:url(#linear-gradient-3)" />
        </g>
      </g>
      <g
         id="g84"
         clip-path="url(#clip-path-4)">
        <g
           id="g86">
          <path
             id="path100"
             fill="url(#linear-gradient-4)"
             d="m 106.46,263.78 67.23,29.629 -0.956,-11.72 -65.31,-28.782 -0.964,10.873"
             style="fill:url(#linear-gradient-4)" />
        </g>
      </g>
      <g
         id="g102"
         clip-path="url(#clip-path-5)">
        <g
           id="g104">
          <path
             id="path118"
             fill="url(#linear-gradient-5)"
             d="m 110.773,215.048 -0.963,10.877 60.544,26.677 -0.958,-11.72 -58.623,-25.834"
             style="fill:url(#linear-gradient-5)" />
        </g>
      </g>
      <path
         id="path120"
         d="m 304.071,110.42 30.938,-9.94 c -0.112,-0.219 -0.205,-0.45 -0.317,-0.665 A 174.408,174.408 0 0 0 316.139,70.981 l -29.068,15.042 a 142.712,142.712 0 0 1 16.726,23.868 c 0.096,0.172 0.178,0.354 0.274,0.53"
         class="cls-3" />
      <path
         id="path122"
         d="m 321.155,168.942 32.214,2.311 a 172.861,172.861 0 0 0 -2.964,-25.592 l -32.502,1.107 a 140.969,140.969 0 0 1 3.252,22.174"
         class="cls-3" />
      <path
         id="path124"
         d="m 182.022,320.377 c -78.203,0 -141.828,-63.623 -141.828,-141.825 0,-78.201 63.625,-141.824 141.828,-141.824 a 140.929,140.929 0 0 1 76.273,22.34 L 280.854,35.607 A 172.86,172.86 0 0 0 182.022,4.682 c -95.871,0 -173.867,78 -173.867,173.87 0,95.871 77.996,173.87 173.867,173.87 81.904,0 150.69,-56.956 169.014,-133.322 l -30.412,-10.55 c -13.805,63.838 -70.692,111.827 -138.602,111.827"
         class="cls-3" />
      <g
         id="g126"
         clip-path="url(#clip-path-6)">
        <g
           id="g128">
          <path
             id="path142"
             fill="url(#linear-gradient-6)"
             d="m 313.126,67.16 a 175.312,175.312 0 0 0 -29.75,-28.133 179.67,179.67 0 0 0 -4.788,-3.42 L 256.03,59.068 173.69,144.7 287.07,86.023 316.14,70.981 c -1.006,-1.274 -1.976,-2.577 -3.014,-3.821"
             style="fill:url(#linear-gradient-6)" />
        </g>
      </g>
      <g
         id="g144"
         clip-path="url(#clip-path-7)">
        <g
           id="g146">
          <path
             id="path160"
             fill="url(#linear-gradient-7)"
             d="m 353.588,177.179 c -0.017,-1.99 -0.136,-3.952 -0.219,-5.925 l -32.214,-2.312 -147.465,-10.584 144.67,50.191 30.41,10.551 c 0.09,-0.36 0.192,-0.714 0.278,-1.078 a 173.652,173.652 0 0 0 4.572,-39.47 c 0,-0.46 -0.03,-0.913 -0.033,-1.373"
             style="fill:url(#linear-gradient-7)" />
        </g>
      </g>
      <g
         id="g162"
         clip-path="url(#clip-path-8)">
        <g
           id="g164">
          <path
             id="path178"
             fill="url(#linear-gradient-8)"
             d="m 348.84,138.18 a 172.551,172.551 0 0 0 -13.83,-37.7 l -30.939,9.94 -128.148,41.182 141.98,-4.834 32.502,-1.107 c -0.483,-2.506 -0.976,-5.01 -1.564,-7.482"
             style="fill:url(#linear-gradient-8)" />
        </g>
      </g>
    </g>
    <path
       fill="#27799f"
       d="m -1744.7819,4915.3161 c 0.053,2.1687 -0.1616,4.3137 -0.7078,6.4109 -0.1465,0.5665 0,0.6597 0.5147,0.7206 6.9001,0.7922 13.3137,2.9947 19.178,6.7306 0.6897,0.4395 0.825,0.1954 1.0763,-0.4264 1.7017,-4.1942 4.2393,-7.805 7.707,-10.7314 1.163,-0.9808 2.4121,-1.8486 3.9598,-2.1318 1.5575,-0.2855 2.5406,0.4711 2.6983,2.0605 0.1541,1.5484 -0.1953,3.0214 -0.7411,4.4459 -1.6529,4.2945 -4.2036,7.9752 -7.6912,10.9808 -0.5267,0.4542 -0.6203,0.6739 -0.056,1.1987 2.7772,2.5849 5.1465,5.5162 7.1942,8.7126 0.3268,0.5098 0.3381,0.7675 -0.2254,1.0932 a 141.08786,141.08786 0 0 0 -4.8384,2.9354 c -0.5267,0.3343 -0.7983,0.3343 -1.1601,-0.2442 a 36.493003,36.493003 0 0 0 -8.796,-9.6807 c -5.6886,-4.3753 -12.0845,-7.0728 -19.2427,-7.713 -14.0788,-1.2554 -25.5277,3.7412 -34.37,14.748 -0.169,0.2103 -0.3343,0.4252 -0.4898,0.645 -1.2464,1.7494 -1.2453,1.7494 -3.0147,0.6063 -1.1885,-0.7682 -2.3655,-1.5545 -3.5721,-2.2942 -0.5237,-0.3193 -0.6938,-0.5526 -0.2817,-1.1529 2.0672,-3.0195 4.4188,-5.7885 7.1363,-8.2366 0.5568,-0.5008 0.6161,-0.7235 0.038,-1.2863 -3.568,-3.4586 -6.3017,-7.4474 -7.521,-12.3463 a 6.821317,6.821317 0 0 1 -0.1165,-2.7126 c 0.2029,-1.2998 1.163,-1.9869 2.4621,-1.7949 1.6341,0.2404 2.9387,1.148 4.1585,2.1698 3.2622,2.7333 5.6852,6.1067 7.3918,9.9891 0.3193,0.7235 0.5466,0.775 1.2066,0.3873 5.8355,-3.4399 12.13,-5.4764 18.8896,-6.0113 0.8895,-0.071 0.9939,-0.3644 0.8249,-1.1927 -0.9162,-4.5252 -0.8944,-9.0346 0.4602,-13.4884 0.3268,-1.0706 0.7765,-2.0871 1.4771,-2.9688 1.2415,-1.5635 2.7036,-1.5605 3.938,0.038 1.2303,1.5913 1.7103,3.4887 2.092,5.4151 0.3343,1.6927 0.4572,3.4061 0.4245,5.1296 z m -9.012,103.4936 c 0.079,-1.7157 0.053,-3.4422 0.4511,-5.1289 0.1465,-0.624 0.1653,-0.9899 -0.7276,-1.0684 -6.8877,-0.6021 -13.3084,-2.6964 -19.2374,-6.2565 -0.618,-0.3719 -0.7882,-0.2329 -1.0654,0.3493 -1.7216,3.603 -4.0255,6.7776 -7.1067,9.3468 -1.1686,0.9752 -2.4132,1.8508 -3.9598,2.1359 -1.5605,0.2893 -2.5443,-0.4662 -2.7055,-2.0533 -0.1577,-1.5496 0.1991,-3.0184 0.7378,-4.4478 1.3975,-3.7182 3.5481,-6.9635 6.361,-9.7475 0.677,-0.6698 0.5707,-0.964 -0.06,-1.5305 -2.1142,-1.8985 -3.929,-4.0721 -5.6217,-6.3542 -0.3805,-0.5139 -0.4222,-0.7833 0.1578,-1.166 a 110.9202,110.9202 0 0 0 4.5699,-3.1717 c 0.5597,-0.4102 0.8399,-0.3776 1.2584,0.1991 3.3516,4.6397 7.5518,8.3388 12.5962,11.0424 7.5875,4.0654 15.6562,5.4955 24.1653,4.1048 10.3069,-1.6844 18.5465,-6.8054 24.7644,-15.1799 0.3907,-0.5271 0.6612,-0.686 1.2573,-0.2442 1.491,1.1033 3.0218,2.1518 4.5684,3.1736 0.5417,0.3568 0.6262,0.5894 0.2104,1.1487 -1.5906,2.1469 -3.2919,4.1946 -5.2401,6.0226 -0.4928,0.462 -0.3937,0.6529 0.049,1.0683 3.7531,3.5312 6.6055,7.6334 7.8719,12.7081 0.2141,0.861 0.2366,1.7397 0.1127,2.6142 -0.1954,1.3558 -1.1582,2.0504 -2.5158,1.8408 -1.5973,-0.2442 -2.8764,-1.13 -4.0721,-2.127 -3.3265,-2.7712 -5.7668,-6.2141 -7.5031,-10.1578 -0.2779,-0.6303 -0.4631,-0.681 -1.0266,-0.3155 -5.8682,3.7967 -12.2859,6.0849 -19.2307,6.87 -0.66,0.075 -0.6221,0.3005 -0.5278,0.8298 0.7374,4.1319 0.7344,8.2517 -0.3531,12.3317 -0.3644,1.3738 -0.8647,2.6995 -1.8009,3.8069 -1.1938,1.4114 -2.5841,1.4211 -3.7423,-0.038 -1.4827,-1.8588 -1.9339,-4.1139 -2.3377,-6.3802 -0.2479,-1.4012 -0.2141,-2.8227 -0.2968,-4.234 z m 39.749,-55.3629 c 1.2307,6.7727 1.2423,13.4977 1.2077,20.2306 0,0.9155 -0.2517,1.127 -1.1243,1.0973 -1.9876,-0.068 -3.9816,-0.049 -5.9714,0 -0.636,0 -0.7833,-0.184 -0.7822,-0.7971 0,-10.5259 0,-21.0533 0,-31.5793 0,-0.6596 0.1728,-0.8557 0.8408,-0.8456 2.5296,0.038 5.0612,0.049 7.5909,0 0.7592,0 1.0435,0.2743 1.2779,0.9332 2.1131,5.9635 4.5342,11.8208 6.1514,17.9545 0.049,0.1878 0.1465,0.3606 0.2517,0.6202 0.4474,-0.5886 0.512,-1.2385 0.677,-1.8339 1.607,-5.7799 3.7997,-11.3607 5.7231,-17.0331 0.1728,-0.5068 0.447,-0.636 0.9572,-0.6311 2.598,0.038 5.1961,0.038 7.7934,0 0.6589,0 0.7701,0.2329 0.7689,0.8182 0,10.5255 0,21.0522 0,31.5789 0,0.5695 -0.079,0.8418 -0.755,0.8268 a 153.03684,153.03684 0 0 0 -6.3753,0 c -0.6698,0 -0.7622,-0.2517 -0.7652,-0.8287 -0.038,-6.3084 -0.1015,-12.6168 0.9293,-18.8727 0.064,-0.3978 0.053,-0.8073 0.068,-1.2107 0,-0.083 -0.049,-0.1653 -0.139,-0.4621 -0.3344,0.997 -0.6075,1.8069 -0.8757,2.6191 -1.7025,5.1484 -3.6935,10.1916 -5.5263,15.2915 -0.2216,0.6161 -0.5398,0.825 -1.1799,0.7919 a 36.896537,36.896537 0 0 0 -3.1368,0 c -0.4849,0 -0.7216,-0.1578 -0.8835,-0.6045 -2.0902,-5.7588 -4.3892,-11.4432 -6.1037,-17.3339 -0.068,-0.2367 -0.083,-0.538 -0.6172,-0.71 z m -69.0263,4.7134 c 0,5.1942 0,10.3895 0,15.5837 0,0.7416 -0.1089,1.0568 -0.9658,1.0316 -2.2922,-0.068 -4.5871,-0.049 -6.8801,0 -0.6969,0 -0.9133,-0.1578 -0.9054,-0.8843 0.038,-3.7434 0,-7.4872 0.038,-11.2314 0,-0.7603 -0.1465,-1.0526 -0.9872,-1.0338 -2.6289,0.06 -5.2619,0.06 -7.8915,0 -0.8828,-0.038 -1.0387,0.2892 -1.03,1.0901 0.041,3.7096 0,7.4208 0.038,11.1304 0,0.7851 -0.2291,0.9451 -0.962,0.9301 a 212.29274,212.29274 0 0 0 -6.9812,0 c -0.5924,0 -0.8111,-0.1127 -0.8092,-0.7682 0.038,-10.5575 0.038,-21.115 0,-31.6724 -7e-4,-0.648 0.2104,-0.7825 0.808,-0.7754 2.328,0.038 4.6556,0.045 6.9824,0 0.7404,0 0.9722,0.1578 0.962,0.9362 -0.045,3.4399 0,6.8809 -0.038,10.3211 0,0.8039 0.1502,1.109 1.03,1.0883 2.6296,-0.06 5.2626,-0.06 7.8915,0 0.8418,0.038 0.9951,-0.2705 0.9872,-1.0319 -0.038,-3.4737 0,-6.9474 -0.038,-10.4211 0,-0.7187 0.2029,-0.9046 0.9054,-0.8915 2.293,0.045 4.5879,0.06 6.8801,0 0.8595,-0.038 0.97,0.3006 0.9658,1.0384 -0.037,5.1946 0,10.3888 0,15.583 z m 7.1026,0.041 c 0,-5.228 0,-10.4583 0,-15.6871 0,-0.7186 0.1202,-0.9793 0.9215,-0.9741 6.4774,0.038 12.9549,0.038 19.4323,0 0.7247,0 1.0019,0.1353 0.9749,0.9294 a 94.937865,94.937865 0 0 0 0,5.5657 c 0.038,0.6841 -0.2216,0.837 -0.8606,0.8321 -3.5763,-0.038 -7.1521,0 -10.7284,-0.038 -0.7705,0 -1.0398,0.154 -1.0207,0.9887 0.041,1.7941 0.053,1.4433 0,3.2363 -0.038,0.7802 0.1653,1.0375 0.9918,1.0229 2.9342,-0.053 5.87,0 8.8043,-0.041 0.8298,0 1.0067,0.2554 0.9861,1.0236 a 113.36427,113.36427 0 0 0 0,5.6665 c 0,0.6686 -0.1916,0.8557 -0.8516,0.8486 -2.9688,-0.038 -5.9377,0 -8.9057,-0.038 -0.7543,0 -1.0436,0.1315 -1.0278,0.9771 0.037,1.3666 -0.038,2.7235 0,4.0473 0,0.7307 0.2179,0.8937 0.9106,0.8877 3.745,-0.038 7.4903,0 11.2344,-0.038 0.7822,0 1.0395,0.1803 1.0109,0.994 -0.064,1.8208 -0.041,3.6435 0,5.4655 0,0.6243 -0.1127,0.8745 -0.817,0.8715 a 2413.0943,2413.0943 0 0 0 -20.2423,0 c -0.7217,0 -0.8032,-0.2742 -0.8013,-0.8787 0.038,-5.2291 0,-10.4579 0,-15.6882 z m 28.343,-0.071 c 0,-5.1953 0,-10.3907 -0.038,-15.5849 0,-0.7922 0.1953,-1.0236 0.9977,-1.0037 2.2592,0.056 4.5226,0.064 6.7799,0 0.8426,-0.038 0.9771,0.2742 0.9748,1.0271 -0.037,7.9274 0,15.8561 -0.037,23.7843 0,0.8501 0.1427,1.1492 1.0834,1.1311 3.5086,-0.068 7.0172,-7e-4 10.5259,-0.045 0.781,0 0.9579,0.2292 0.9372,0.967 a 112.28387,112.28387 0 0 0 0,5.5661 c 0,0.6202 -0.1615,0.8001 -0.7904,0.7971 a 2750.7212,2750.7212 0 0 0 -19.6341,0 c -0.6735,0 -0.8347,-0.1991 -0.8317,-0.8478 0.038,-5.2626 0,-10.5256 0,-15.7885 z"
       id="path272523"
       style="stroke-width:0.993925" />
    <path
       d="m -1681.5945,5207.5406 v -2.365 h -2.1631 v 2.365 h -1.1216 v -5.6944 h 1.1216 v 2.3879 h 2.1743 v -2.3879 h 1.1214 v 5.6944 z m 5.1676,0 h -0.8741 l -0.078,-0.3024 a 2.4102126,2.4102126 0 0 1 -1.278,0.3587 c -0.7846,0 -1.1211,-0.5156 -1.1211,-1.2221 0,-0.706 0.3812,-1.1206 1.2445,-1.1206 h 0.9865 v -0.4263 c 0,-0.4598 -0.1348,-0.6167 -0.8185,-0.6167 a 6.2393096,6.2393096 0 0 0 -1.1882,0.1234 l -0.1348,-0.7847 a 5.8065971,5.8065971 0 0 1 1.4688,-0.1904 c 1.3449,0 1.7373,0.4598 1.7373,1.4796 z m -1.1208,-1.547 h -0.7958 c -0.348,0 -0.4485,0.089 -0.4485,0.4039 0,0.3138 0.1007,0.4148 0.4258,0.4148 a 1.7372953,1.7372953 0 0 0 0.8075,-0.2132 z m 3.363,1.6368 a 5.23509,5.23509 0 0 1 -1.48,-0.2355 l 0.1462,-0.7846 c 0.4161,0.1153 0.8456,0.1754 1.2775,0.1791 0.471,0 0.5496,-0.1007 0.5496,-0.4146 0,-0.3136 0,-0.3812 -0.751,-0.5379 -1.0425,-0.2467 -1.1211,-0.4934 -1.1211,-1.2892 0,-0.7958 0.381,-1.1882 1.6026,-1.1882 0.4302,0 0.8592,0.05 1.278,0.1462 l -0.1007,0.8182 a 7.8464045,7.8464045 0 0 0 -1.1773,-0.1234 c -0.4706,0 -0.5492,0.1007 -0.5492,0.3589 0,0.2577 0,0.3588 0.6054,0.4932 1.1994,0.3026 1.3115,0.4598 1.3115,1.3003 0,0.8409 -0.2914,1.278 -1.5916,1.278 z m 4.9098,-0.089 v -2.8696 c 0,-0.2243 -0.1007,-0.3253 -0.3477,-0.3253 -0.3927,0.042 -0.7734,0.1607 -1.1206,0.3482 v 2.8467 h -1.1216 v -5.7732 l 1.1216,0.1576 v 1.8159 a 3.9008576,3.9008576 0 0 1 1.5693,-0.3923 c 0.706,0 0.9637,0.4816 0.9637,1.2105 v 2.9821 h -1.0647 z m 1.9728,-4.6855 v -1.0089 h 1.1211 v 1.0089 z m 0,4.6855 v -4.1028 h 1.1211 v 4.114 z m 1.9281,-4.0693 c 0,-1.0313 0.6277,-1.6251 2.0848,-1.6251 0.5363,0 1.0704,0.065 1.5921,0.1907 l -0.1234,0.9192 a 8.9679333,8.9679333 0 0 0 -1.4352,-0.202 c -0.7619,0 -1.0086,0.2579 -1.0086,0.8521 v 2.1636 c 0,0.5938 0.2467,0.8517 1.009,0.8517 a 8.9679333,8.9679333 0 0 0 1.4008,-0.1007 l 0.1234,0.9195 c -0.5211,0.1251 -1.0553,0.1891 -1.5916,0.1904 -1.4571,0 -2.085,-0.5943 -2.085,-1.6256 l 0.034,-2.533 z m 6.042,4.1591 c -1.4683,0 -1.8607,-0.7734 -1.8607,-1.6144 v -1.0197 c 0,-0.841 0.3924,-1.6144 1.8607,-1.6144 1.4684,0 1.8606,0.7734 1.8606,1.6144 v 1.0425 c 0,0.807 -0.3922,1.5916 -1.8606,1.5916 z m 0,-3.3629 c -0.5715,0 -0.7958,0.2467 -0.7958,0.706 v 1.1211 c 0,0.4598 0.2243,0.7065 0.7958,0.7065 0.5715,0 0.7958,-0.2467 0.7958,-0.7065 v -1.1211 c 0.045,-0.5044 -0.2243,-0.7506 -0.7958,-0.7506 z m 4.8763,0.067 c -0.388,0.1701 -0.7628,0.3687 -1.1211,0.5943 v 2.6456 h -1.1211 v -4.1367 h 0.9084 l 0.067,0.4598 c 0.3493,-0.2266 0.7262,-0.4073 1.1211,-0.5381 l 0.1461,0.9755 z m 4.2819,1.8833 a 1.2667689,1.2667689 0 0 1 -1.4123,1.4461 6.1430557,6.1430557 0 0 1 -1.1211,-0.1234 v 1.6814 l -1.1208,0.1575 v -5.9415 h 0.8517 l 0.1007,0.348 a 2.309232,2.309232 0 0 1 1.3566,-0.4263 c 0.8629,0 1.3226,0.4934 1.3226,1.4237 z m -2.5558,0.4598 c 0.3138,0.068 0.6326,0.1056 0.9532,0.1121 0.381,0 0.5379,-0.1792 0.5379,-0.5491 v -1.4911 c 0,-0.336 -0.1348,-0.5264 -0.5269,-0.5264 a 1.5469363,1.5469363 0 0 0 -0.953,0.3695 z m -16.1529,5.4478 h 4.6184 l -7.0175,23.5401 h -6.5689 l -7.017,-23.5401 h 4.6184 l 5.6833,19.5835 z m 17.4643,23.4954 h -3.5309 l -0.3136,-1.1211 a 9.3933407,9.3933407 0 0 1 -5.1118,1.5135 c -3.1385,0 -4.4839,-2.1524 -4.4839,-5.1118 0,-3.4973 1.5133,-4.8312 5.0108,-4.8312 h 4.1251 v -1.8048 c 0,-1.9057 -0.5268,-2.5782 -3.2842,-2.5782 a 24.011028,24.011028 0 0 0 -4.7642,0.5268 l -0.5267,-3.2842 a 22.419404,22.419404 0 0 1 5.8959,-0.8073 c 5.4032,0 6.9835,1.9057 6.9835,6.2105 v 11.2883 z m -4.3043,-6.4901 h -3.1836 c -1.4125,0 -1.8049,0.3922 -1.8049,1.6924 0,1.3004 0.3924,1.7263 1.7266,1.7263 a 6.725735,6.725735 0 0 0 3.2507,-0.8853 z m 11.0753,-10.6834 v 11.9948 c 0,0.9191 0.3922,1.3789 1.3788,1.3789 a 11.871017,11.871017 0 0 0 4.4836,-1.4465 v -11.9269 h 4.3048 v 17.1844 h -3.2847 l -0.4258,-1.4911 a 17.206657,17.206657 0 0 1 -6.8496,1.8387 c -2.8579,0 -3.8779,-2.0067 -3.8779,-5.0782 v -12.4538 h 4.2708 z m 12.4541,17.1735 v -24.2017 l 4.3043,-0.5939 v 24.8068 z m 17.1508,-0.3587 a 11.927308,11.927308 0 0 1 -3.778,0.6728 c -3.1385,0 -4.7303,-1.4799 -4.7303,-4.5513 v -9.573 h -2.5782 v -3.363 h 2.5782 v -4.2711 l 4.2928,-0.605 v 4.8761 h 4.4058 l -0.2689,3.363 h -4.1364 v 8.9679 a 1.3565771,1.3565771 0 0 0 1.5469,1.5129 8.2838436,8.2838436 0 0 0 2.1524,-0.3472 z m -78.199,-127.7903 43.2356,86.7744 43.539,-86.7744 z m 48.3809,17.4202 h 5.0331 v 4.9993 h -5.0331 v -4.9998 z m -10.0211,20.1773 h -5.0332 v -5.0896 h 5.0332 z m 0,-7.5444 h -5.0332 v -5.089 h 5.0332 z m 0,-7.5438 h -5.0332 v -5.0896 h 5.0332 z m 7.6002,22.5761 h -5.0895 v -5.0331 h 5.0895 z m 0,-7.5443 h -5.0895 v -5.0332 h 5.0895 z m 0,-7.5439 h -5.0895 v -5.0331 h 5.0895 z m 0,-7.5777 h -5.0895 v -4.9998 h 5.0895 z m 2.4772,2.5106 h 5.033 v 5.0332 h -5.0897 l 0.055,-5.0332 z m 0,12.5775 v -4.9997 h 5.033 v 5.0332 z"
       id="path272561"
       style="stroke-width:0.429704" />
    <image
       width="503.23749"
       height="283.10416"
       preserveAspectRatio="none"
       xlink:href="442-github-actions.png"
       id="image273934"
       x="-1597.7725"
       y="5034.1641" />
  </g>
  <style
     type="text/css"
     id="style239546">
	.st0{display:none;fill:#FFFFFF;}
	.st1{fill:#717073;}
	.st2{fill:#FFFFFF;}
	.st3{fill:#62BB46;}
	.st4{fill:#727175;}
	.st5{fill:#00438C;}
	.st6{fill:#009CDC;}
</style>
  <style
     id="style272521">svg {enable-background:new 0 0 124 129.1199951}</style>
</svg>
