<?xml version="1.0" encoding="UTF-8" standalone="no"?>
<!-- Generator: Adobe Illustrator 19.0.0, SVG Export Plug-In . SVG Version: 6.00 Build 0)  -->

<svg
   version="1.1"
   id="layer"
   x="0px"
   y="0px"
   viewBox="-153 -46 652 652"
   style="enable-background:new -153 -46 652 652;"
   xml:space="preserve"
   sodipodi:docname="rutgers-the-state-university-of-new-jersey-vector-logo.ink.svg"
   inkscape:version="1.1.2 (0a00cf5339, 2022-02-04)"
   xmlns:inkscape="http://www.inkscape.org/namespaces/inkscape"
   xmlns:sodipodi="http://sodipodi.sourceforge.net/DTD/sodipodi-0.dtd"
   xmlns="http://www.w3.org/2000/svg"
   xmlns:svg="http://www.w3.org/2000/svg"><defs
   id="defs13" /><sodipodi:namedview
   id="namedview11"
   pagecolor="#ffffff"
   bordercolor="#666666"
   borderopacity="1.0"
   inkscape:pageshadow="2"
   inkscape:pageopacity="0.0"
   inkscape:pagecheckerboard="0"
   showgrid="false"
   inkscape:zoom="1.1027607"
   inkscape:cx="326"
   inkscape:cy="325.54659"
   inkscape:window-width="5120"
   inkscape:window-height="2083"
   inkscape:window-x="0"
   inkscape:window-y="0"
   inkscape:window-maximized="1"
   inkscape:current-layer="layer" />
<style
   type="text/css"
   id="style2">
	.st0{fill:#CC0033;}
</style>
<path
   class="st0"
   d="M358.1,351.3L358.1,351.3c-0.8,0-1.3,0-1.9,0H356c-0.8,1.9-1.9,3.7-2.9,5.6c-0.3-0.8-0.8-1.6-1.3-2.4  c-0.5-1.1-1.1-2.1-1.6-3.2l0,0c-0.8,0-1.3,0-2.1,0v0.3c1.3,2.4,2.7,4.8,4,7.2v1.9c0,1.1,0,2.1,0,3.2l0,0c0.8,0,1.3,0,2.1,0l0,0  c0-1.3,0-2.7,0-3.7c0-0.5,0-0.8,0-1.3C355.2,355.8,356.8,353.4,358.1,351.3L358.1,351.3z M335.4,362h-1.1c0-0.5,0-1.1,0-1.6  c0-0.8,0-1.6,0-2.4h1.1c1.3,0,2.7,0,4,0l0,0c0-0.5,0-0.8,0-1.3l0,0c-1.1,0-2.1,0-3.2,0h-1.9c0-1.3,0-2.4,0-3.7c1.9,0,3.7,0,5.3,0  l0,0c0-0.5,0-0.8,0-1.3l0,0c-2.7,0-5.1,0-7.7,0l0,0c0,1.6,0,3.2,0,4.5c0,2.7,0,5.1,0,7.7l0,0c2.4,0,5.1,0,7.5,0l0,0  c0-0.5,0-0.8,0-1.3l0,0C338.6,362,337,362,335.4,362L335.4,362z M317,354c0-1.3,1.3-1.6,2.4-1.6s2.1,0.3,2.9,0.8h0.3  c0-0.5,0-1.1,0.3-1.6l0,0c-1.1-0.3-2.1-0.5-3.2-0.5c-2.1,0-4.3,1.1-4.3,3.5c0,4,6.1,3.2,6.1,6.1c0,1.6-1.3,1.9-2.7,1.9  s-2.1-0.3-3.2-1.1h-0.3c0,0.5,0,1.1,0,1.6l0,0c1.1,0.5,2.4,0.8,3.5,0.8c2.4,0,4.8-1.1,4.8-3.7C323.4,355.8,317,356.6,317,354  L317,354z M304.5,354.8c0-0.5-0.3-1.1-0.5-1.3c-0.8-0.8-1.9-0.8-2.7-0.8c-0.3,0-0.8,0-1.1,0c0,0.5,0,0.8,0,1.3v1.6  c0,0.5,0,1.1,0,1.3c0.3,0,0.5,0,0.8,0C302.4,356.9,304.5,356.6,304.5,354.8L304.5,354.8z M303.4,358c1.3,1.9,2.7,3.7,4,5.3v0.3  c-0.8,0-1.6,0-2.1,0l0,0c-0.5-1.1-1.3-1.9-1.9-2.9c-0.5-0.8-1.1-1.6-1.6-2.4c-0.5,0-0.8,0-1.3,0c0,1.6,0,3.5,0.3,5.1l0,0  c-0.8,0-1.3,0-1.9,0l0,0c0-1.6,0-3.5,0-5.1c0-2.4,0-4.8-0.3-7.2l0,0c0.8,0,1.6,0,2.4,0h1.1c2.4,0,5.1,0.3,5.1,3.5  C306.4,356.4,305,357.4,303.4,358L303.4,358z M284.2,362h-1.1c0-0.5,0-1.1,0-1.6c0-0.8,0-1.6,0-2.4h1.1c1.3,0,2.7,0,4,0l0,0  c0-0.5,0-0.8,0-1.3l0,0c-1.1,0-2.1,0-3.2,0h-1.9c0-1.3,0-2.4,0-3.7c1.9,0,3.7,0,5.3,0l0,0c0-0.5,0-0.8,0-1.3l0,0c-2.7,0-5.1,0-7.7,0  l0,0c0,1.6,0,3.2,0,4.5c0,2.7,0,5.1,0,7.7l0,0c2.4,0,5.1,0,7.5,0l0,0c0-0.5,0-0.8,0-1.3l0,0C287.4,362,285.8,362,284.2,362  L284.2,362z M271.7,351c-0.8,0-1.3,0-2.1,0l0,0c0,2.1,0,4,0,6.1v1.3c0,0.5,0,1.9,0,2.4c-0.3,0.8-0.8,1.1-1.6,1.1  c-0.3,0-0.8,0-1.1-0.3l0,0v1.3v0.3c0.5,0,0.8,0.3,1.3,0.3c2.4,0,3.5-1.3,3.5-3.5c0-1.6,0-2.9,0-4.5  C271.7,354.2,271.7,352.6,271.7,351L271.7,351z M249,351L249,351c-0.3,1.6-0.5,2.9-0.8,4.3l-1.3,6.9l-1.3-7.5  c-0.3-1.3-0.5-2.4-0.5-3.7l0,0c-1.1,0-1.9,0-2.9,0l0,0c-0.8,3.7-1.3,7.5-2.1,11.2c-0.8-3.7-1.6-7.5-2.1-11.2l0,0c-0.8,0-1.3,0-2.1,0  l0,0c0.5,2.1,1.1,4,1.3,6.1c0.5,2.1,1.1,4,1.3,6.1l0,0c0.8,0,1.9,0,2.7,0l0,0c0.8-3.7,1.6-7.5,2.4-11.2l1.6,7.7  c0.3,1.1,0.5,2.4,0.8,3.5l0,0c0.8,0,1.9,0,2.7,0l0,0c0-0.5,0.3-1.1,0.3-1.9c0.3-1.6,0.8-3.2,1.1-4.8c0.5-1.9,0.8-3.7,1.3-5.6l0,0  C250.1,351,249.6,351,249,351L249,351z M222.6,362h-1.1c0-0.5,0-1.1,0-1.6c0-0.8,0-1.6,0-2.4h1.1c1.3,0,2.7,0,4,0l0,0  c0-0.5,0-0.8,0-1.3l0,0c-1.1,0-2.1,0-3.2,0h-1.9c0-1.3,0-2.4,0-3.7c1.9,0,3.7,0,5.3,0l0,0c0-0.5,0-0.8,0-1.3l0,0c-2.7,0-5.1,0-7.7,0  l0,0c0,1.6,0,3.2,0,4.5c0,2.7,0,5.1,0,7.7l0,0c2.4,0,5.1,0,7.5,0l0,0c0-0.5,0-0.8,0-1.3l0,0C225.8,362,224.2,362,222.6,362  L222.6,362z M210.1,351c-0.5,0-1.1,0-1.6,0l0,0c0.3,3.5,0.3,6.9,0.3,10.1c-1.9-3.5-4-6.9-5.9-10.4h-0.3c-0.8,0-1.6,0-2.4,0l0,0  c0,1.6,0,3.5,0,5.3c0,2.4,0,4.5,0,6.9l0,0c0.5,0,1.1,0,1.9,0l0,0c0-1.6,0-2.9-0.3-4.5l-0.3-6.1l2.9,5.1c1.1,1.9,2.1,3.7,3.2,5.6h0.3  c0.8,0,1.6,0,2.1,0l0,0c0-1.6,0-2.9,0-4.5C210.1,356.4,210.1,353.7,210.1,351L210.1,351z M175.7,351L175.7,351c0,1.9,0,3.5,0,5.3  v1.9c0,1.6,0,3.5,0,5.1l0,0c0.8,0,1.3,0,2.1,0l0,0c0-1.3,0-2.9,0-4.3c0-0.3,0-0.5,0-1.1c1.3,0,2.9,0,4.3,0l0,0c0-0.5,0-0.8,0-1.3  l0,0c-1.6,0-2.9,0-4.5,0c0-1.3,0-2.7,0-4c1.6,0,3.5,0,5.1,0l0,0c0-0.5,0-1.1,0-1.3l0,0C180.5,351,178.1,351,175.7,351L175.7,351z   M164.5,357.4c0-2.4-0.8-5.1-3.7-5.1s-3.7,2.7-3.7,5.1c0,2.4,0.8,5.1,3.7,5.1C163.7,362.2,164.5,359.6,164.5,357.4L164.5,357.4z   M166.6,357.4c0,3.7-1.9,6.4-5.9,6.4s-5.9-2.7-5.9-6.4s1.9-6.7,5.9-6.7C164.8,350.8,166.6,354,166.6,357.4L166.6,357.4z   M459.2,336.6c1.3-2.4,2.7-4.8,4-7.2v-0.3c-0.5,0-1.1,0-1.9,0H461c-0.8,1.9-1.9,3.7-2.9,5.6c-0.3-0.8-0.8-1.6-1.3-2.4  c-0.5-1.1-1.1-2.1-1.6-3.2l0,0c-0.8,0-1.3,0-2.1,0v0.3c1.3,2.4,2.7,4.8,4,7.2v1.9c0,1.1,0,2.1,0,3.2l0,0c0.8,0,1.3,0,2.1,0l0,0  c0-1.3,0-2.7,0-3.7C459.2,337.4,459.2,337.2,459.2,336.6L459.2,336.6z M436.8,329.4L436.8,329.4c0,0.5,0,1.1-0.3,1.3l0,0  c1.1,0,2.1,0,3.5,0c0,1.1,0,2.4,0,3.5c0,2.4,0,5.1,0,7.5l0,0c0.8,0,1.3,0,2.1,0l0,0c0-1.9,0-3.7,0-5.6c0-1.6,0-3.5,0-5.1  c1.1,0,2.1,0,3.5,0l0,0c0-0.5,0-0.8,0-1.3l0,0C442.6,329.4,439.7,329.4,436.8,329.4L436.8,329.4z M428.2,329.4L428.2,329.4  c-0.8,0-1.3,0-2.1,0l0,0c0,2.1,0.3,4.5,0.3,6.7v1.9c0,1.3,0,2.4,0,3.7l0,0c0.8,0,1.3,0,2.1,0l0,0c0-2.1-0.3-4.5-0.3-6.7  C428.2,333.2,428.2,331.3,428.2,329.4L428.2,329.4z M410.9,332.4c0-1.3,1.3-1.6,2.4-1.6s2.1,0.3,2.9,0.8h0.3c0-0.5,0-1.1,0.3-1.6  l0,0c-1.1-0.3-2.1-0.5-3.2-0.5c-2.1,0-4.3,1.1-4.3,3.5c0,4,6.1,3.2,6.1,6.1c0,1.6-1.3,1.9-2.7,1.9c-1.3,0-2.1-0.3-3.2-1.1h-0.3  c0,0.5,0,1.1,0,1.6l0,0c1.1,0.5,2.4,0.8,3.5,0.8c2.4,0,4.8-1.1,4.8-3.7C417.3,334.2,410.9,335,410.9,332.4L410.9,332.4z   M398.4,332.9c0-0.5-0.3-1.1-0.5-1.3c-0.8-0.8-1.9-0.8-2.7-0.8c-0.3,0-0.8,0-1.1,0c0,0.5,0,0.8,0,1.3v1.6c0,0.5,0,1.1,0,1.3  c0.3,0,0.5,0,0.8,0C396.2,335,398.4,334.8,398.4,332.9L398.4,332.9z M397.3,336.4c1.3,1.9,2.7,3.7,4,5.3v0.3c-0.8,0-1.6,0-2.1,0l0,0  c-0.5-1.1-1.3-1.9-1.9-2.9c-0.5-0.8-1.1-1.6-1.6-2.4c-0.5,0-0.8,0-1.3,0c0,1.6,0,3.5,0.3,5.1l0,0c-0.8,0-1.3,0-2.1,0l0,0  c0-1.6,0-3.5,0-5.1c0-2.4,0-4.8-0.3-7.2l0,0c0.8,0,1.6,0,2.4,0h1.1c2.4,0,5.1,0.3,5.1,3.5C400.2,334.8,398.9,335.8,397.3,336.4  L397.3,336.4z M378.1,340.4H377c0-0.5,0-1.1,0-1.6c0-0.8,0-1.6,0-2.4h1.1c1.3,0,2.7,0,4,0l0,0c0-0.5,0-0.8,0-1.3l0,0  c-1.1,0-2.1,0-3.2,0H377c0-1.3,0-2.4,0-3.7c1.9,0,3.7,0,5.3,0l0,0c0-0.5,0-0.8,0-1.3l0,0c-2.7,0-5.1,0-7.7,0l0,0c0,1.6,0,3.2,0,4.5  c0,2.7,0,5.1,0,7.7l0,0c2.4,0,5.1,0,7.5,0l0,0c0-0.5,0-0.8,0-1.3l0,0C381.3,340.4,379.7,340.4,378.1,340.4L378.1,340.4z M365,329.4  L365,329.4c-0.5,1.9-1.1,3.7-1.6,5.6l-1.6,5.6c-1.1-3.7-2.1-7.5-3.2-11.2l0,0c-0.8,0-1.3,0-2.1,0l0,0c0.8,2.7,1.6,5.3,2.4,8  c0.3,1.1,0.5,1.9,0.8,2.7c0.3,0.5,0.3,1.1,0.5,1.6l0,0c0.8,0,1.9,0,2.7,0l0,0c0.5-2.1,1.3-4,1.9-6.1c0.8-2.1,1.3-4,1.9-6.1l0,0  C366.1,329.4,365.6,329.4,365,329.4L365,329.4z M348.2,341.7c0-2.1-0.3-4.5-0.3-6.7c0-1.9,0-3.7,0-5.6v-0.3c-0.8,0-1.3,0-2.1,0l0,0  c0,2.1,0.3,4.5,0.3,6.7v1.9c0,1.3,0,2.4,0,3.7l0,0C346.6,342,347.4,342,348.2,341.7L348.2,341.7z M333.8,341.7L333.8,341.7  c0.8,0,1.6,0,2.4,0l0,0c0-1.6,0-2.9,0-4.5c0-2.7,0-5.1,0-7.7l0,0c-0.5,0-1.1,0-1.6,0l0,0c0.3,3.5,0.3,6.9,0.3,10.1  c-1.9-3.5-4-6.9-5.9-10.4h-0.3c-0.8,0-1.6,0-2.4,0l0,0c0,1.6,0,3.5,0,5.3c0,2.4,0,4.5,0,6.9l0,0c0.5,0,1.1,0,1.9,0l0,0  c0-1.6,0-2.9-0.3-4.5l-0.3-6.1l2.9,5.1C331.7,338.2,332.8,339.8,333.8,341.7L333.8,341.7z M316.8,337.4c0-0.8,0-1.6,0-2.7v-2.4  c0-1.1,0-2.1,0-2.9l0,0c-0.5,0-1.1,0-1.6,0l0,0c0,2.1,0,4.5,0,6.7c0,1.3,0.3,2.9-1.1,3.7c-0.5,0.5-1.3,0.5-2.1,0.5  c-0.5,0-1.3-0.3-1.9-0.5c-1.3-0.8-1.1-2.7-1.1-4c0-2.1,0-4.5,0-6.7l0,0c-0.8,0-1.3,0-2.1,0l0,0c0,2.7,0,5.1,0,7.7  c0,0.5,0,1.3,0.3,1.9c0.5,2.1,2.7,2.9,4.8,2.9C315.2,342.2,316.8,340.6,316.8,337.4L316.8,337.4z M288.8,341.7c0-0.5,0-0.8,0-1.3  l0,0c-1.6,0-3.2,0-4.8,0h-1.1c0-0.5,0-1.1,0-1.6c0-0.8,0-1.6,0-2.4h1.1c1.3,0,2.7,0,4,0l0,0c0-0.5,0-0.8,0-1.3l0,0  c-1.1,0-2.1,0-3.2,0h-1.9c0-1.3,0-2.4,0-3.7c1.9,0,3.7,0,5.3,0l0,0c0-0.5,0-0.8,0-1.3l0,0c-2.7,0-5.1,0-7.7,0l0,0c0,1.6,0,3.2,0,4.5  c0,2.7,0,5.1,0,7.7l0,0C283.7,342,286.1,342,288.8,341.7L288.8,341.7z M264,329.4L264,329.4c0,0.5,0,1.1-0.3,1.3l0,0  c1.1,0,2.1,0,3.5,0c0,1.1,0,2.4,0,3.5c0,2.4,0,5.1,0,7.5l0,0c0.8,0,1.3,0,2.1,0l0,0c0-1.9,0-3.7,0-5.6c0-1.6,0-3.5,0-5.1  c1.1,0,2.1,0,3.5,0l0,0c0-0.5,0-0.8,0-1.3l0,0C269.8,329.4,266.9,329.4,264,329.4L264,329.4z M254.1,336.6l-1.9-5.9l-1.9,5.9  c0.5,0,1.3,0,1.9,0S253.6,336.6,254.1,336.6L254.1,336.6z M253.8,329.4c1.3,4,2.7,8.3,4,12.3v0.3c-0.8,0-1.3,0-2.1,0l0,0  c-0.3-1.3-0.8-2.4-1.1-3.7c-0.8,0-1.6,0-2.4,0c-0.8,0-1.6,0-2.1,0c-0.3,1.3-0.8,2.4-1.1,3.7l0,0c-0.5,0-1.3,0-1.9,0l0,0  c0.8-2.4,1.6-4.5,2.4-6.9c0.5-1.9,1.3-3.5,1.9-5.3h0.3C252.2,329.4,253,329.4,253.8,329.4L253.8,329.4z M235.4,334.5  c0,2.4,0,5.1,0,7.5l0,0c0.8,0,1.3,0,2.1,0l0,0c0-1.9,0-3.7,0-5.6c0-1.6,0-3.5,0-5.1c1.1,0,2.1,0,3.5,0l0,0c0-0.5,0-0.8,0-1.3l0,0  c-2.9,0-5.9,0-8.8,0l0,0c0,0.5,0,0.8,0,1.3l0,0c1.1,0,2.1,0,3.5,0C235.4,332.1,235.4,333.2,235.4,334.5L235.4,334.5z M224.5,338.5  c0-4.3-6.4-3.5-6.4-5.9c0-1.3,1.3-1.6,2.4-1.6s2.1,0.3,2.9,0.8h0.3c0-0.5,0-1.1,0.3-1.6l0,0c-1.1-0.3-2.1-0.5-3.2-0.5  c-2.1,0-4.3,1.1-4.3,3.5c0,4,6.1,3.2,6.1,6.1c0,1.6-1.3,1.9-2.7,1.9c-1.3,0-2.1-0.3-3.2-1.1h-0.3c0,0.5,0,1.1,0,1.6l0,0  c1.1,0.5,2.4,0.8,3.5,0.8C222.1,342.2,224.5,340.9,224.5,338.5L224.5,338.5z M193.8,340.4h-1.1c0-0.5,0-1.1,0-1.6c0-0.8,0-1.6,0-2.4  h1.1c1.3,0,2.7,0,4,0l0,0c0-0.5,0-0.8,0-1.3l0,0c-1.1,0-2.1,0-3.2,0h-1.9c0-1.3,0-2.4,0-3.7c1.9,0,3.7,0,5.3,0l0,0  c0-0.5,0-0.8,0-1.3l0,0c-2.7,0-5.1,0-7.7,0l0,0c0,1.6,0,3.2,0,4.5c0,2.7,0,5.1,0,7.7l0,0c2.4,0,5.1,0,7.5,0l0,0c0-0.5,0-0.8,0-1.3  l0,0C197,340.4,195.4,340.4,193.8,340.4L193.8,340.4z M173.3,335.8c1.3,0,2.9,0,4.3,0c0.5,0,1.1,0,1.6,0v1.3c0,1.6,0,3.2,0,4.5l0,0  c0.8,0,1.3,0,2.1,0l0,0c-0.3-1.6-0.3-3.5-0.3-5.1v-1.9c0-1.9,0-3.7,0-5.3l0,0c-0.8,0-1.3,0-2.1,0l0,0c0,1.6,0,3.2,0.3,4.8  c-0.8,0-1.9,0-2.7,0h-1.1c-0.8,0-1.3,0-2.1,0v-0.5c0-1.3,0-2.9,0-4.3l0,0c-0.8,0-1.3,0-2.1,0l0,0c0.3,2.7,0,5.1,0,7.7  c0,1.6,0,2.9,0,4.5l0,0c0.8,0,1.3,0,2.1,0l0,0c0-1.3-0.3-2.9-0.3-4.3v-1.6H173.3z M157.3,330.8c-1.1,0-2.1,0-3.5,0l0,0  c0-0.5,0-0.8,0-1.3l0,0c2.9,0,5.9,0,8.8,0l0,0c0,0.5,0,0.8,0,1.3l0,0c-1.1,0-2.1,0-3.5,0c0,1.6,0,3.5,0,5.1c0,1.9,0,3.7,0,5.6l0,0  c-0.8,0-1.3,0-2.1,0l0,0c0-2.4,0-5.1,0-7.5C157.3,333.2,157.3,332.1,157.3,330.8L157.3,330.8z"
   id="path4" />
<path
   class="st0"
   d="M-131.5,185.2v96v1.3c0.5,15.5,5.9,28.8,15.5,39.7c17.6,20,44.5,25.1,47.5,25.3c0.3,0,0.3,0,0.5,0h0.5h0.5l0,0  c1.9-0.3,29.6-4.8,48-25.6c4.3-4.8,7.5-10.1,10.1-15.7c3.5-7.7,5.1-16.3,5.3-25.3v-95.7H-131.5z M-8,188.4L-43.5,227l-0.8-0.5  l17.3-37.9H-8V188.4z M-29.6,188.4l-21.1,34.4l-1.1-0.3l8.3-34.1H-29.6z M-58.2,188.4h11.5l-11.7,32h-1.1L-58.2,188.4z M-61.9,188.4  l-5.1,31.2h-0.8l-4.8-31.2H-61.9z M-76.3,188.4l1.3,31.7l-0.8,0.3l-11.7-32C-87.5,188.4-76.3,188.4-76.3,188.4z M-91.2,188.4  l8.3,34.1l-0.8,0.3l-21.1-34.4H-91.2z M-107.8,188.4l17.6,37.9l-0.8,0.5l-35.7-38.4H-107.8z M-6.4,210l-25.1,18.4h9.6L-6.4,214v67.2  v1.6c-0.3,8.3-2.1,15.7-5.1,22.7c-2.4,5.3-5.6,10.4-9.6,14.9c-17.9,20-45.1,24.3-46.1,24.5l0,0l0,0l0,0h-0.3  c-2.9-0.5-28.8-5.3-45.6-24.3c-9.3-10.7-14.4-23.7-14.7-38.9v-68l15.5,14.4h9.6l-25.6-18.1v-21.3l29.1,39.7h64l28.8-40V210z   M-124.6,281.2v1.3c0.5,13.9,5.1,25.6,13.9,35.2c14.1,15.7,34.9,21.3,41.3,22.7V231.8h-55.2V281.2z M-107.2,294h-5.3v-0.5h1.1h0.3  c0.5,0,0.5-0.3,0.5-1.3v-5.3c0-1.6,0-1.6-0.5-1.6c-0.3,0-0.3,0-0.5,0l-1.1,0.3v-0.5h0.3c0.8-0.3,3.2-1.1,3.5-1.1l0.3,0.3v8  c0,1.3,0,1.6,0.8,1.6h1.1v0.3H-107.2z M-82.4,279.3v1.1h-28.8v-1.1H-82.4z M-111.2,278.2v-1.1h28.8v1.1H-111.2z M-97.9,284.4  c-0.5,1.3-1.1,2.4-2.7,5.6c-0.8,1.9-1.1,2.1-1.6,4.3h-0.3l-0.3-0.3c-0.5-0.3-0.8-0.5-1.3-1.1c0.3-1.1,2.1-3.2,3.5-5.3  c0.8-1.1,0.8-1.9,1.1-2.4h-3.5c-1.3,0-1.3,0-1.9,1.3h-0.5V286c0-0.8,0.3-1.3,0.5-2.1h6.4l0.3,0.3L-97.9,284.4z M-92.8,294.2  c-1.9,0-3.5-1.3-3.5-4.3c0-4.3,2.9-6.1,5.3-6.1c0.8,0,1.3,0.3,1.6,0.3v0.5h-0.3c-0.3,0-0.5,0-0.8,0c-2.1,0-3.7,1.9-3.7,5.3  c0,2.4,0.5,4,1.9,4c1.1,0,1.3-1.1,1.3-2.1c0-1.6-0.8-2.9-2.1-2.9c-0.3,0-0.3,0-0.5,0v-0.3h0.3c0.3-0.3,0.8-0.5,1.6-0.5  c1.3,0,2.4,1.1,2.4,2.7C-89.4,292.9-91,294.2-92.8,294.2z M-84,294.2c-1.9,0-3.5-1.3-3.5-4.3c0-4.3,2.9-6.1,5.3-6.1  c0.8,0,1.3,0.3,1.6,0.3v0.5h-0.3c-0.3,0-0.5,0-0.8,0c-2.1,0-3.7,1.9-3.7,5.3c0,2.4,0.5,4,1.9,4c1.1,0,1.3-1.1,1.3-2.1  c0-1.6-0.8-2.9-2.1-2.9c-0.3,0-0.3,0-0.5,0v-0.3h0.3c0.3-0.3,0.8-0.5,1.6-0.5c1.3,0,2.4,1.1,2.4,2.7  C-80.6,292.9-82.2,294.2-84,294.2z M-96.8,246.2c1.3,0,2.4,1.1,2.4,2.4s-1.1,2.4-2.4,2.4c-1.3,0-2.4-1.1-2.4-2.4  S-98.2,246.2-96.8,246.2z M-108.3,253.2c1.1,0,2.1,0.3,2.9,0.5c0.3,0,0.3,0.3,0.5,0.3c1.1,0.5,2.4,0.8,3.5,0.8l0,0h0.3h0.3  c1.3,0,2.7-0.8,3.2-2.1h1.6c0.5,1.3,1.9,2.1,3.2,2.1h0.3l0,0h0.8c0.8,0,1.9-0.3,2.7-0.5c0.3-0.3,0.5-0.3,0.8-0.5  c0.8-0.3,1.9-0.5,2.7-0.5c4,0,7.2,3.2,7.2,7.2c0,1.9-1.1,3.7-2.7,5.6l0,0c-1.1,1.1-1.6,2.4-1.9,4c0,0.3,0,0.5,0,0.8v0.8v0.5  c0,0.8,0.3,1.3,0.5,2.1v1.9h-28.8v-1.6l0.3-0.5c0.3-0.8,0.5-1.6,0.5-2.4c0-0.5,0-0.8,0-1.1c-0.3-1.6-0.8-2.9-1.9-4c0,0,0,0,0-0.3  c-1.6-1.9-2.7-3.7-2.7-5.6C-115.5,256.4-112.3,253.2-108.3,253.2z M-65.6,340.4h0.3c6.9-1.6,27.2-7.2,41.1-22.7  c8.8-9.9,13.3-22.1,13.9-36.5v-49.3h-55.2V340.4z M-45.9,291.3l-2.1-1.1l-2.1,1.1l0.5-2.4l-1.9-1.6l2.4-0.3l1.1-2.1l1.1,2.1l2.4,0.3  l-1.6,1.6L-45.9,291.3z M-25.4,291.3l-2.1-1.1l-2.1,1.1l0.5-2.4l-1.6-1.6l2.4-0.3l1.1-2.1l1.1,2.1l2.4,0.3l-1.6,1.6L-25.4,291.3z   M-37.1,255.3l0.5-0.3c0.3-0.3,0.8-0.5,1.1-0.8c0.8-0.5,2.4-0.8,4.3-0.8c0.8,0,1.9,0,2.9,0.3c0.3,0,0.8,0,1.3,0.3  c1.3,0,2.9,0,4.5-0.5l0.5-0.3v1.3l0.8-0.3l0.8-0.3l0.8-0.3v1.3l0.8-0.3l0.8-0.3l0.8-0.3v26.4h-0.3l-0.8,0.3  c-3.7,1.3-6.9,1.9-9.6,1.3c-2.9-0.5-5.3-0.3-7.2,0.8h-1.6v-27.7H-37.1z M-36.8,289.7l2.4,0.3l-1.6,1.9l0.5,2.4l-2.1-1.1l-2.1,1.1  l0.5-2.4l-1.6-1.6l2.4-0.3l1.1-2.1L-36.8,289.7z M-57.9,254.2l0.8,0.3l0.8,0.3l0.8,0.3v-1.3l0.8,0.3l0.8,0.3l0.8,0.3v-1.3l0.5,0.3  l0.8,0.3c1.3,0.3,2.7,0.3,3.7,0.3c0.5,0,0.8,0,1.3-0.3c1.1-0.3,1.9-0.3,2.9-0.3c1.9,0,3.5,0.5,4.3,0.8c0.5,0.3,1.3,0.5,1.9,1.1v28  h-1.6l-0.5-0.3c-1.9-0.8-4-1.1-6.7-0.5c-2.7,0.5-6.1,0-10.4-1.6h-0.3v-26.7H-57.9z M-35.8,282l-0.5,0.3v-1.1h0.3c0,0,0,0,0.3,0  c1.9-1.1,4.5-1.6,7.5-1.1c2.1,0.3,4.5,0.3,7.5-0.5l0.8-0.3h0.3v-23.2c0.3,0,0.8-0.3,1.1-0.3v24.3c-3.7,1.3-7.2,1.9-9.6,1.3  C-31.2,280.6-33.6,280.9-35.8,282z M-56,280.1l-0.8-0.3l0.5-24l0.5,0.3v23.2h0.3c3.2,1.1,6.1,1.3,8.3,0.8c2.9-0.5,5.3-0.3,7.5,1.1  l0,0l0,0h0.3v1.1c-2.1-1.3-4.8-1.6-8-1.1C-49.6,281.7-52.6,281.4-56,280.1z M-35.8,279.8l-0.5,0.3V279l0.3-0.3  c0.5-0.3,1.9-1.1,4.5-1.3h0.3c0.3,0,0.5,0,0.5,0c0.5,0,1.3,0,1.9,0.3c1.6,0.3,3.5,0.3,5.3-0.3l0.8-0.3h0.5V255  c0.3,0,0.8-0.3,1.1-0.3v23.7c-2.9,0.8-5.3,1.1-7.5,0.8C-31.2,278.5-33.6,278.8-35.8,279.8z M-53.9,278.5h-0.8l0.5-23.2h0.5v22.1h0.5  c2.4,0.5,4.5,0.5,6.1,0.3c0.8,0,1.3-0.3,1.9-0.3c0.3,0,0.5,0,0.5,0h0.3c2.4,0,3.7,0.8,4.3,1.1h0.3l0.3,0.3v1.1  c-2.1-1.3-4.8-1.6-8-1.1C-49.1,279.6-51.2,279.3-53.9,278.5z M-44.3,272.9c0.8,0,1.6,0,2.4,0.3l0.5,0.3v1.3  c-1.1-0.5-2.1-0.5-2.9-0.5c-0.5,0-1.1,0-1.6,0.3c-0.5,0-1.1,0.3-1.9,0.3c-0.8,0-1.3,0-2.1,0h-0.8v-1.6c1.1,0.3,1.9,0.3,2.9,0.3  c0.5,0,1.1-0.3,1.6-0.3C-45.6,273.2-45.1,272.9-44.3,272.9z M-33.6,274.5l-0.5,0.3v-1.3c1.1-0.3,2.1-0.5,2.9-0.5  c0.8,0,1.3,0,1.9,0.3c0.5,0,0.8,0.3,1.6,0.3c0.8,0,1.3,0,2.1,0h0.8v1.3c-1.1,0.3-1.9,0.3-2.9,0.3c-0.8,0-1.3-0.3-1.9-0.3  c-0.5,0-1.1-0.3-1.6-0.3C-32,274.2-32.8,274.2-33.6,274.5z M-107.8,270.8h3.5v3.5h-3.5V270.8z M-101.6,270.8h3.5v0.3v3.2h-3.5V270.8  z M-89.4,270.8h3.5v3.5h-3.5V270.8z M-92,274h-3.5v-3.5h3.5V274z M-33.6,271.3l-0.5,0.3v-1.3c1.1-0.3,2.1-0.5,2.9-0.5  c0.8,0,1.3,0,1.9,0.3c0.5,0,0.8,0.3,1.6,0.3c0.8,0,1.3,0,2.1,0h0.8v1.3c-1.1,0.3-1.9,0.3-2.9,0.3c-0.8,0-1.3-0.3-1.9-0.3  c-0.5,0-1.1-0.3-1.6-0.3C-32,270.8-32.8,271-33.6,271.3z M-41.4,271.6c-1.1-0.5-2.1-0.5-2.9-0.5c-0.5,0-1.1,0-1.6,0.3  c-0.5,0-1.1,0.3-1.9,0.3c-0.8,0-1.3,0-2.1,0h-0.8v-1.3c1.1,0.3,1.9,0.3,2.9,0.3c0.5,0,1.1-0.3,1.6-0.3s1.1-0.3,1.9-0.3  s1.6,0,2.4,0.3l0.5,0.3C-41.4,270.5-41.4,271.6-41.4,271.6z M-110.4,263.8c-1.6-1.9-1.9-2.4-1.9-3.7c0-2.1,1.9-4,4-4  c0.5,0,1.1,0,1.6,0.3c0.3,0,0.3,0.3,0.5,0.3c1.6,0.8,3.2,1.1,4.8,1.1c0,0,0,0,0.3,0c0.3,0,0.3,0,0.3,0c0.5,0,1.1,0,1.6-0.3l0.5-0.3  l0.3-0.3v11.2h-9.6v-0.3C-108.6,266.5-109.4,265.2-110.4,263.8z M-85.6,268.4h-9.6v-11.2l0.3,0.3c0.8,0.3,1.3,0.5,2.1,0.5  c0.3,0,0.3,0,0.5,0c0,0,0,0,0.3,0c1.3,0,2.7-0.3,4-0.8l0.5-0.3l0.3-0.3c0.3,0,0.3-0.3,0.5-0.3c0.5-0.3,1.1-0.3,1.6-0.3  c2.1,0,4,1.9,4,4c0,1.3-1.9,3.5-1.9,3.7c-1.1,1.1-1.6,2.4-2.1,3.5L-85.6,268.4L-85.6,268.4z M-33.6,268.1l-0.5,0.3V267  c1.1-0.3,2.1-0.5,2.9-0.5c0.8,0,1.3,0,1.9,0.3c0.5,0,0.8,0.3,1.6,0.3c0.8,0,1.3,0,2.1,0h0.8v0.8c-1.1,0.3-1.9,0.3-2.9,0.3  c-0.8,0-1.3-0.3-1.9-0.3c-0.5,0-1.1-0.3-1.6-0.3C-32,267.6-32.8,267.8-33.6,268.1z M-41.4,268.4c-1.1-0.5-2.1-0.5-2.9-0.5  c-0.5,0-1.1,0-1.6,0.3c-0.5,0-1.1,0.3-1.9,0.3c-0.8,0-1.3,0-2.1,0h-0.8V267c1.1,0.3,1.9,0.3,2.9,0.3c0.5,0,1.1-0.3,1.6-0.3  s1.1-0.3,1.9-0.3s1.6,0,2.4,0.3l0.5,0.3C-41.4,267.3-41.4,268.4-41.4,268.4z M-33.6,264.6l-0.5,0.3v-1.3c1.1-0.3,2.1-0.5,2.9-0.5  c0.8,0,1.3,0,1.9,0.3c0.5,0,0.8,0.3,1.6,0.3c0.8,0,1.3,0,2.1,0h0.8v1.3c-1.1,0.3-1.9,0.3-2.9,0.3c-0.8,0-1.3-0.3-1.9-0.3  c-0.5,0-1.1-0.3-1.6-0.3C-32,264.4-32.8,264.4-33.6,264.6z M-49.9,264.6h-0.8v-1.3c1.1,0.3,1.9,0.3,2.9,0.3c0.5,0,1.1-0.3,1.6-0.3  c0.5,0,1.1-0.3,1.9-0.3c0.8,0,1.6,0,2.4,0.3l0.5,0.3v1.3c-1.1-0.5-2.1-0.5-2.9-0.5c-0.5,0-1.1,0-1.6,0.3c-0.5,0-1.1,0.3-1.9,0.3  C-48.3,264.9-49.1,264.9-49.9,264.6z M-49.9,261.4h-0.8v-1.3c1.1,0.3,1.9,0.3,2.9,0.3c0.5,0,1.1-0.3,1.6-0.3c0.5,0,1.1-0.3,1.9-0.3  c0.8,0,1.6,0,2.4,0.3l0.5,0.3v1.3c-1.1-0.5-2.1-0.5-2.9-0.5c-0.5,0-1.1,0-1.6,0.3c-0.5,0-1.1,0.3-1.9,0.3  C-48.3,261.7-49.1,261.4-49.9,261.4z M-33.6,261.4l-0.5,0.3v-1.3c1.1-0.3,2.1-0.5,2.9-0.5c0.8,0,1.3,0,1.9,0.3  c0.5,0,0.8,0.3,1.6,0.3c0.8,0,1.3,0,2.1,0h0.8v1.3c-1.1,0.3-1.9,0.3-2.9,0.3c-0.8,0-1.3-0.3-1.9-0.3c-0.5,0-1.1-0.3-1.6-0.3  C-32,260.9-32.8,261.2-33.6,261.4z M-33.6,258.2l-0.5,0.3v-1.3c1.1-0.3,2.1-0.5,2.9-0.5c0.8,0,1.3,0,1.9,0.3c0.5,0,0.8,0.3,1.6,0.3  c0.8,0,1.3,0,2.1,0h0.8v1.3c-1.1,0.3-1.9,0.3-2.9,0.3c-0.8,0-1.3-0.3-1.9-0.3c-0.5,0-1.1-0.3-1.6-0.3C-32,257.7-32.8,258-33.6,258.2  z M-49.9,258.2h-0.8v-1.3c1.1,0.3,1.9,0.3,2.9,0.3c0.5,0,1.1-0.3,1.6-0.3c0.5,0,1.1-0.3,1.9-0.3c0.8,0,1.6,0,2.4,0.3l0.5,0.3v1.3  c-1.1-0.5-2.1-0.5-2.9-0.5c-0.5,0-1.1,0-1.6,0.3c-0.5,0-1.1,0.3-1.9,0.3C-48.3,258.2-49.1,258.2-49.9,258.2z"
   id="path6" />
<path
   class="st0"
   d="M88.2,281.4c-3.5-6.1-12.5-22.7-13.6-29.1c0,0,0-0.5,0-0.8c8.3-4,14.9-10.4,14.9-20.3  c-0.3-24.5-23.7-22.1-41.3-22.1H28.5v1.9l4.3,0.3c2.4,0.3,4,0.5,4.5,2.9c0.8,2.9,0.5,10.7,0.5,13.9v43.7c0,3.2,0.3,10.9-0.5,13.9  c-0.8,2.4-2.1,2.7-4.5,2.9l-4.3,0.5v1.9h29.1v-1.9l-4.3-0.3c-2.4-0.3-4-0.5-4.5-2.9c-0.8-2.9-0.5-10.7-0.5-13.9V255  c2.1,0,5.9,0,7.2,0c2.1,0,5.1,0,7.2,1.1c1.3,0.8,2.7,2.1,3.5,4.3c4,8,8.3,16.8,12.8,24.5c11.2,18.9,30.1,42.4,51.5,41.6h2.7v-2.4  h-1.9C116.2,324.9,96,295.8,88.2,281.4z M57.8,252.1c-3.2,0-6.4,0.3-9.6,0v-38.7c2.7-0.5,5.3-1.1,8.3-1.1c13.6,0,21.1,8,21.1,21.1  C77.6,245.7,70.1,252.1,57.8,252.1z M144.5,223.8h25.1v2.1l-3.7,0.3c-4,0.5-4,0.8-4,12.5V291l-3.2,0.8l-2.7-2.9  c-1.3-1.3-2.1-2.9-3.7-2.9c-1.3,0-9.9,6.4-23.7,6.4c-21.3,0-22.9-12-22.9-25.9v-29.1c0-10.1-0.3-10.7-4-11.2l-3.7-0.3v-2.1h25.1v2.1  l-3.7,0.3c-3.7,0.3-4,0.8-4,11.2v27.5c0,14.7,2.4,24.3,18.4,24.3c10.7,0,17.1-6.4,18.7-8.3V238c0-10.9-0.3-11.5-4-11.7l-3.7-0.3  V223.8z M272.8,264.4h26.1v2.1l-3.7,0.3c-1.9,0.3-1.9,0.8-1.9,9.3v1.3c0,2.9,0.3,10.9,0.3,10.9c-3.7,1.1-11.5,4-22.4,4  c-20.5,0-39.2-9.1-39.2-34.9c0-27.2,22.1-35.2,38.4-35.2c10.4,0,18.4,2.7,21.1,4.3c0.5,4.3,1.1,10.1,1.6,15.2l-2.7,0.5  c-1.1-4-2.4-16.5-20-16.5c-16.8,0-27.5,10.9-27.5,30.1c0,17.3,8.8,33.6,29.1,33.6c3.7,0,8.5-0.5,12-1.3V279c0-11.2-0.3-11.5-7.2-12  l-3.7-0.3v-2.4H272.8z M468.5,273.7c0,13.9-12.8,18.9-23.7,18.9c-8,0-13.1-2.1-16-4c-1.1-3.7-2.1-10.9-3.2-17.9l3.2-0.8  c1.1,7.5,4.8,19.5,18.9,19.5c7.2,0,12.3-4.5,12.3-12.5c0-7.5-6.1-12.5-14.4-16l-6.4-3.7c-5.9-3.2-11.2-9.6-11.2-17.1  c0-12.5,10.4-17.6,21.3-17.6c6.4,0,11.5,1.6,14.1,3.2c0.5,3.7,0.8,11.2,1.1,14.1h-2.7c-1.1-5.1-2.7-13.9-14.1-13.9  c-5.9,0-11.2,4.3-11.2,11.2c0,6.1,4.5,9.3,9.9,12.5l5.6,3.2C460,257.2,468.5,261.4,468.5,273.7z M407.4,272.9  c-2.7-4.8-6.1-11.5-7.7-14.4c5.6-2.7,14.1-8.3,14.1-17.9c0-15.5-13.9-16.8-23.5-16.8h-26.7v2.1l3.7,0.3c3.7,0.3,4,0.8,4,11.2v40  c0,10.4-0.3,10.7-4,11.2l-3.7,0.3v2.1h24.8v-2.1l-3.7-0.3c-3.7-0.3-4-0.8-4-11.2v-15.7h4.3c2.1,0,4.3,0,5.9,1.3  c1.3,1.1,3.7,5.1,6.4,9.9l4,7.7c3.2,5.6,7.7,10.1,14.7,10.1h8v-2.1c-2.1,0-4-0.3-5.1-1.1C416.2,286.5,411.7,280.4,407.4,272.9z   M386.6,259h-5.9v-30.9c2.1-0.5,4.3-0.8,6.4-0.8c8,0,16,3.7,16,15.5C403.2,254.2,395.4,259,386.6,259z M353,273.7l2.7,0.5  c-0.8,6.4-2.1,11.5-3.5,16.8h-46.9v-2.1l3.7-0.3c3.7-0.3,4-0.8,4-11.2v-40c0-10.4-0.3-10.7-4-11.2l-3.7-0.3v-2.1h44.3  c0.5,2.1,0.8,13.9,0.8,14.9l-2.4,0.5c-2.1-10.9-2.4-12.5-17.1-12.5h-8.5v28h9.9c7.5,0,9.1-0.3,9.9-4.3l0.5-3.5h2.7v18.4h-2.7  l-0.5-3.5c-0.5-4.3-2.4-4.3-10.4-4.3h-9.1V287c3.7,0.8,7.5,1.3,11.2,1.3C349.8,288.4,350.9,282.2,353,273.7z M229,223.8  c0.5,2.1,0.8,15.7,0.8,16.3h-2.4c-2.1-11.7-2.4-13.3-17.1-13.3H205v49.9c0,10.9,0.3,11.5,5.9,12l3.7,0.3v2.1h-28.5v-2.1l3.7-0.3  c5.3-0.3,5.6-0.8,5.6-11.2v-50.7h-6.1c-13.9,0-13.9,1.9-16.3,13.3h-2.4c0-0.5,0.5-13.9,0.8-16.3C171.4,223.8,229,223.8,229,223.8z"
   id="path8" />
</svg>
